<svg width="16" height="28" viewBox="0 0 16 28" fill="none" xmlns="http://www.w3.org/2000/svg">
<path d="M8 0C3.58883 0 0 4.23942 0 9.45024C0 15.9997 8.00787 27.1875 8.00787 27.1875C8.00787 27.1875 16 15.6776 16 9.45024C16 4.23942 12.4113 0 8 0ZM10.4138 12.2173C9.7482 13.0033 8.87417 13.3964 8 13.3964C7.12597 13.3964 6.25166 13.0033 5.58637 12.2173C4.25538 10.6452 4.25538 8.08705 5.58637 6.51478C6.23087 5.75312 7.08818 5.33362 8 5.33362C8.91182 5.33362 9.76899 5.75328 10.4138 6.51478C11.7448 8.08705 11.7448 10.6452 10.4138 12.2173Z" fill="white"/>
</svg>
