<svg width="164" height="32" viewBox="0 0 164 32" fill="none" xmlns="http://www.w3.org/2000/svg">
<rect y="1" width="33" height="31" rx="15.5" fill="#222228"/>
<path d="M19.8569 17.6516L20.2504 15.3737H17.8267V13.8931C17.8267 13.2702 18.165 12.6616 19.2471 12.6616H20.3645V10.7219C19.7138 10.6273 19.0562 10.5762 18.3972 10.5688C16.4023 10.5688 15.0999 11.6615 15.0999 13.6368V15.3737H12.8887V17.6516H15.0999V23.1611H17.8267V17.6516H19.8569Z" fill="white"/>
<rect x="43.1758" y="1.46777" width="33.5088" height="30.5321" rx="15.2661" fill="#222228"/>
<path d="M57.7698 16.865C57.7698 15.7059 58.8004 14.7661 60.0721 14.7661C61.3437 14.7661 62.3749 15.7059 62.3749 16.865C62.3749 18.024 61.3437 18.9639 60.0721 18.9639C58.8004 18.9639 57.7698 18.024 57.7698 16.865ZM56.5249 16.865C56.5249 18.6506 58.1129 20.098 60.0721 20.098C62.0312 20.098 63.6192 18.6506 63.6192 16.865C63.6192 15.0794 62.0312 13.632 60.0721 13.632C58.1129 13.632 56.5249 15.0794 56.5249 16.865ZM62.9307 13.5038C62.9306 13.6532 62.9792 13.7993 63.0702 13.9236C63.1612 14.0479 63.2907 14.1448 63.4421 14.202C63.5936 14.2593 63.7602 14.2743 63.921 14.2452C64.0819 14.2161 64.2296 14.1442 64.3456 14.0386C64.4616 13.9329 64.5406 13.7984 64.5726 13.6518C64.6047 13.5053 64.5883 13.3533 64.5256 13.2153C64.463 13.0772 64.3568 12.9591 64.2205 12.8761C64.0842 12.793 63.9239 12.7486 63.76 12.7486H63.7596C63.5399 12.7487 63.3291 12.8283 63.1737 12.9699C63.0183 13.1115 62.9309 13.3035 62.9307 13.5038ZM57.2812 21.9899C56.6077 21.9619 56.2417 21.8597 55.9984 21.7733C55.6759 21.6589 55.4457 21.5226 55.2038 21.3024C54.9619 21.0821 54.8121 20.8726 54.6871 20.5787C54.5922 20.357 54.4801 20.0233 54.4494 19.4094C54.416 18.7458 54.4093 18.5464 54.4093 16.865C54.4093 15.1837 54.4165 14.9849 54.4494 14.3206C54.4801 13.7068 54.5931 13.3737 54.6871 13.1514C54.8126 12.8575 54.9622 12.6477 55.2038 12.4272C55.4454 12.2067 55.6753 12.0702 55.9984 11.9563C56.2415 11.8698 56.6077 11.7676 57.2812 11.7397C58.0094 11.7092 58.2281 11.7031 60.0721 11.7031C61.916 11.7031 62.1349 11.7097 62.8637 11.7397C63.5372 11.7676 63.9027 11.8706 64.1466 11.9563C64.4691 12.0702 64.6992 12.207 64.9411 12.4272C65.1831 12.6474 65.3323 12.8575 65.4579 13.1514C65.5527 13.373 65.6649 13.7068 65.6955 14.3206C65.729 14.9849 65.7357 15.1837 65.7357 16.865C65.7357 18.5464 65.729 18.7452 65.6955 19.4094C65.6648 20.0233 65.5521 20.3569 65.4579 20.5787C65.3323 20.8726 65.1827 21.0823 64.9411 21.3024C64.6995 21.5224 64.4691 21.6589 64.1466 21.7733C63.9034 21.8597 63.5372 21.962 62.8637 21.9899C62.1356 22.0204 61.9168 22.0265 60.0721 22.0265C58.2273 22.0265 58.0092 22.0204 57.2812 21.9899ZM57.224 10.607C56.4886 10.6375 55.9861 10.7438 55.5473 10.8994C55.0928 11.0601 54.708 11.2758 54.3236 11.6256C53.9391 11.9755 53.7031 12.3267 53.5268 12.741C53.356 13.1412 53.2394 13.599 53.2059 14.2692C53.1719 14.9405 53.1641 15.1552 53.1641 16.865C53.1641 18.5748 53.1719 18.7894 53.2059 19.4608C53.2394 20.1311 53.356 20.5888 53.5268 20.989C53.7031 21.403 53.9391 21.7546 54.3236 22.1043C54.708 22.454 55.0928 22.6694 55.5473 22.8306C55.9869 22.9862 56.4886 23.0925 57.224 23.123C57.961 23.1535 58.1961 23.1611 60.0721 23.1611C61.948 23.1611 62.1835 23.154 62.9201 23.123C63.6555 23.0925 64.1577 22.9862 64.5968 22.8306C65.0511 22.6694 65.4361 22.4542 65.8205 22.1043C66.205 21.7545 66.4405 21.403 66.6173 20.989C66.7881 20.5888 66.9053 20.131 66.9382 19.4608C66.9717 18.7889 66.9795 18.5748 66.9795 16.865C66.9795 15.1552 66.9717 14.9405 66.9382 14.2692C66.9047 13.5989 66.7881 13.1409 66.6173 12.741C66.4405 12.327 66.2044 11.9761 65.8205 11.6256C65.4367 11.2752 65.0511 11.0601 64.5974 10.8994C64.1577 10.7438 63.6555 10.637 62.9206 10.607C62.1841 10.5765 61.9486 10.5688 60.0726 10.5688C58.1966 10.5688 57.961 10.5759 57.224 10.607Z" fill="white"/>
<rect x="86.3496" y="1.46777" width="33.5088" height="30.5321" rx="15.2661" fill="#222228"/>
<path d="M110.049 12.7222C109.593 12.9012 109.114 13.0258 108.623 13.093C108.852 13.0571 109.19 12.6803 109.324 12.5278C109.529 12.2978 109.684 12.0352 109.783 11.7534C109.783 11.7325 109.806 11.7026 109.783 11.6876C109.772 11.6819 109.759 11.6788 109.746 11.6788C109.732 11.6788 109.72 11.6819 109.708 11.6876C109.175 11.9509 108.608 12.1518 108.019 12.2856C107.999 12.2914 107.977 12.2919 107.956 12.2871C107.935 12.2824 107.917 12.2726 107.901 12.2587C107.856 12.209 107.806 12.1621 107.754 12.1182C107.514 11.9222 107.242 11.7617 106.947 11.6428C106.55 11.494 106.12 11.4296 105.692 11.4544C105.275 11.4784 104.869 11.5801 104.498 11.7534C104.133 11.9361 103.811 12.1842 103.554 12.483C103.283 12.7905 103.087 13.1473 102.98 13.5295C102.892 13.8931 102.882 14.2688 102.95 14.6359C102.95 14.6987 102.95 14.7076 102.891 14.6987C100.554 14.3847 98.6357 13.6282 97.0685 12.0046C96.9996 11.9328 96.9636 11.9328 96.9078 12.0046C96.2258 12.9494 96.557 14.4445 97.4095 15.1831C97.5242 15.2817 97.6423 15.3774 97.7668 15.4671C97.376 15.4418 96.9947 15.3452 96.6455 15.1831C96.5799 15.1442 96.5439 15.1651 96.5406 15.2369C96.5313 15.3364 96.5313 15.4364 96.5406 15.5359C96.609 16.0127 96.8151 16.4644 97.1377 16.8447C97.4603 17.2251 97.8878 17.5205 98.3767 17.7007C98.4959 17.7473 98.62 17.7824 98.7472 17.8054C98.3854 17.8704 98.0142 17.8805 97.6488 17.8353C97.5701 17.8203 97.5406 17.8592 97.5701 17.928C98.0521 19.124 99.098 19.4888 99.8652 19.6921C99.9701 19.7071 100.075 19.7071 100.193 19.731C100.193 19.731 100.193 19.731 100.173 19.749C99.9472 20.1257 99.0324 20.3799 98.6128 20.5114C97.8467 20.7624 97.03 20.8583 96.2193 20.7925C96.0914 20.7746 96.0619 20.7776 96.0291 20.7925C95.9963 20.8075 96.0291 20.8404 96.0652 20.8703C96.2291 20.9689 96.3931 21.0556 96.5636 21.1394C97.0711 21.3918 97.6077 21.5924 98.1636 21.7374C101.042 22.461 104.282 21.9288 106.442 19.9702C108.141 18.4333 108.737 16.3133 108.737 14.1903C108.737 14.1096 108.846 14.0618 108.908 14.0199C109.338 13.7146 109.716 13.354 110.033 12.9494C110.087 12.8891 110.115 12.8124 110.111 12.7342C110.111 12.6893 110.111 12.6983 110.049 12.7222Z" fill="white"/>
<rect x="130.491" width="33.5088" height="30.5321" rx="15.2661" fill="#222228"/>
<path d="M140.303 14.6224C140.303 14.6224 146.003 12.4313 147.98 11.6597C148.738 11.3511 151.308 10.3635 151.308 10.3635C151.308 10.3635 152.494 9.93146 152.395 10.9807C152.362 11.4128 152.098 12.925 151.835 14.5607C151.439 16.8753 151.011 19.406 151.011 19.406C151.011 19.406 150.945 20.1158 150.385 20.2393C149.825 20.3627 148.902 19.8072 148.738 19.6837C148.606 19.5912 146.266 18.2024 145.41 17.5234C145.179 17.3383 144.916 16.9679 145.443 16.5359C146.629 15.5174 148.046 14.2521 148.902 13.4497C149.298 13.0793 149.693 12.2152 148.046 13.2645C145.706 14.7767 143.4 16.1964 143.4 16.1964C143.4 16.1964 142.873 16.505 141.884 16.2272C140.896 15.9495 139.743 15.5791 139.743 15.5791C139.743 15.5791 138.952 15.1162 140.303 14.6224Z" fill="white"/>
</svg>
