<svg width="25" height="30" viewBox="0 0 25 30" fill="none" xmlns="http://www.w3.org/2000/svg">
<path d="M8.39609 12.3489C9.25282 11.3208 9.25282 9.64807 8.39609 8.61999L5.38305 5.00434C4.92216 4.45122 4.28325 4.17096 3.63076 4.23542C2.99072 4.29864 2.41182 4.69016 2.04253 5.3095C1.96587 5.43805 1.89185 5.56848 1.81934 5.69997L7.87807 12.9705L8.39609 12.3489Z" fill="white"/>
<path d="M20.8309 23.5395L17.8178 19.9239C16.9612 18.8959 15.5671 18.8958 14.7104 19.9239L14.1924 20.5455L20.2514 27.8163C20.3609 27.7292 20.4694 27.6401 20.5765 27.5481C21.0926 27.105 21.4189 26.4103 21.4716 25.6423C21.5254 24.8591 21.2918 24.0927 20.8309 23.5395Z" fill="white"/>
<path d="M12.1198 21.939C11.5328 21.939 10.9811 21.6648 10.566 21.1668L7.36097 17.3207C6.94598 16.8227 6.71736 16.1605 6.71736 15.4562C6.71736 15.0561 6.79134 14.6698 6.93108 14.3193L1.07162 7.28784C0.247399 9.36458 -0.117347 11.6913 0.0331414 14.0267C0.235924 17.1738 1.36688 20.1301 3.21776 22.3511L6.3741 26.1386C8.22488 28.3596 10.6885 29.7168 13.3111 29.9602C13.5976 29.9868 13.884 30 14.1696 30C15.8237 30 17.4509 29.5575 18.9267 28.7141L13.0672 21.6826C12.7751 21.8503 12.4531 21.939 12.1198 21.939Z" fill="white"/>
<path d="M14.7461 0C14.3416 0 14.0137 0.393516 14.0137 0.878906C14.0137 1.3643 14.3416 1.75781 14.7461 1.75781C19.5924 1.75781 23.5351 6.48914 23.5351 12.3047C23.5351 12.7901 23.8631 13.1836 24.2676 13.1836C24.6721 13.1836 25 12.7901 25 12.3047C25 5.51988 20.4001 0 14.7461 0Z" fill="white"/>
<path d="M14.746 12.3039C14.746 12.3039 14.7461 12.3042 14.7461 12.3047C14.7461 12.7901 15.074 13.1836 15.4785 13.1836C15.883 13.1836 16.2109 12.7901 16.2109 12.3047C16.2109 11.3354 15.5538 10.5469 14.7461 10.5469C14.3416 10.5469 14.0137 10.94 14.0137 11.4254C14.0137 11.9108 14.3416 12.3039 14.746 12.3039Z" fill="white"/>
<path d="M14.7461 8.78906C16.3615 8.78906 17.6758 10.3662 17.6758 12.3047C17.6758 12.7901 18.0037 13.1836 18.4082 13.1836C18.8127 13.1836 19.1406 12.7901 19.1406 12.3047C19.1406 9.39691 17.1692 7.03125 14.7461 7.03125C14.3416 7.03125 14.0137 7.42477 14.0137 7.91016C14.0137 8.39555 14.3416 8.78906 14.7461 8.78906Z" fill="white"/>
<path d="M14.7461 3.51562C14.3416 3.51562 14.0137 3.90914 14.0137 4.39453C14.0137 4.87992 14.3416 5.27344 14.7461 5.27344C17.9769 5.27344 20.6055 8.42766 20.6055 12.3047C20.6055 12.7901 20.9334 13.1836 21.3379 13.1836C21.7424 13.1836 22.0703 12.7901 22.0703 12.3047C22.0703 7.4584 18.7847 3.51562 14.7461 3.51562Z" fill="white"/>
</svg>
