<?xml version="1.0" standalone="no"?>
<!DOCTYPE svg PUBLIC "-//W3C//DTD SVG 20010904//EN"
 "http://www.w3.org/TR/2001/REC-SVG-20010904/DTD/svg10.dtd">
<svg version="1.0" xmlns="http://www.w3.org/2000/svg"
 width="124.000000pt" height="107.000000pt" viewBox="0 0 124.000000 107.000000"
 preserveAspectRatio="xMidYMid meet">

<g transform="translate(0.000000,107.000000) scale(0.100000,-0.100000)"
fill="#000000" stroke="none">
<path d="M431 811 c-23 -22 -32 -37 -28 -51 3 -11 1 -20 -3 -20 -14 0 2 -44
23 -62 29 -25 169 -15 152 12 -3 4 2 10 10 14 17 6 21 -9 5 -19 -5 -3 -10 -13
-10 -21 0 -23 18 -7 40 36 27 54 25 71 -12 105 -26 22 -45 29 -88 33 -51 4
-58 2 -89 -27z m97 -48 c2 -8 -5 -13 -16 -13 -30 0 -53 11 -46 22 8 13 57 6
62 -9z"/>
<path d="M718 785 c-28 -26 -35 -60 -19 -99 12 -30 117 -57 175 -44 49 10 50
12 46 88 -2 54 -27 72 -107 77 -63 4 -70 3 -95 -22z m138 -39 c18 -14 18 -15
-8 -21 -39 -10 -64 1 -48 20 16 19 31 19 56 1z"/>
<path d="M320 628 c0 -14 7 -28 15 -32 19 -7 19 13 0 38 -14 19 -15 19 -15 -6z"/>
<path d="M463 561 c-54 -49 -63 -73 -43 -112 6 -10 16 -19 22 -19 6 0 30 -18
54 -40 48 -44 93 -56 74 -20 -8 14 -8 20 0 20 6 0 9 4 5 10 -3 5 -12 7 -19 4
-14 -5 -31 22 -18 30 7 4 63 0 112 -8 14 -2 42 -5 63 -5 31 -1 38 -4 35 -18
-2 -10 -11 -18 -20 -18 -9 0 -20 -4 -24 -8 -4 -4 -2 -7 4 -7 7 0 11 -5 9 -11
-5 -25 22 -18 61 15 27 22 49 32 61 29 10 -3 22 0 25 6 4 6 12 11 18 11 6 0 2
-12 -8 -27 -25 -39 -64 -116 -64 -128 0 -17 -36 -43 -72 -52 -43 -12 -140 -8
-166 6 -13 7 -23 7 -27 2 -7 -12 -53 11 -70 36 -7 10 -16 34 -20 53 -4 19 -18
56 -31 82 -13 26 -24 51 -23 55 1 5 0 13 -1 18 -2 6 -4 25 -4 44 -1 28 -5 35
-23 36 -20 1 -23 -3 -23 -31 0 -18 -4 -35 -10 -39 -5 -3 -7 -12 -4 -19 3 -8 0
-17 -5 -21 -6 -3 -9 -10 -6 -15 3 -5 1 -11 -5 -15 -18 -11 -11 -35 8 -29 15 5
15 4 -1 -6 -20 -13 -20 -11 -1 -180 l7 -65 10 44 9 45 19 -25 c21 -27 42 -83
55 -144 l9 -40 158 -3 157 -3 0 28 c0 34 31 88 59 103 40 21 89 149 135 352 5
23 4 26 -11 21 -10 -4 -21 -11 -25 -17 -4 -7 -22 3 -46 27 -37 36 -62 47 -62
28 0 -6 5 -13 10 -16 18 -11 10 -26 -12 -23 -20 3 -23 8 -21 43 2 22 -1 35 -5
29 -8 -11 -136 -13 -148 -1 -4 4 -25 7 -46 7 -27 0 -38 4 -38 15 0 26 -24 16
-77 -34z m67 -7 c0 -20 -5 -24 -30 -24 -29 0 -30 2 -19 23 23 43 49 44 49 1z
m148 -73 c24 -15 -20 -19 -58 -5 l-35 12 40 1 c22 0 46 -3 53 -8z"/>
<path d="M971 596 c-8 -9 -11 -19 -7 -23 9 -9 29 13 24 27 -2 8 -8 7 -17 -4z"/>
<path d="M540 318 c0 -7 26 -12 33 -5 2 1 14 -5 28 -14 18 -12 39 -15 77 -11
28 2 52 8 52 12 0 13 -91 31 -142 29 -27 -1 -48 -6 -48 -11z"/>
<path d="M798 46 l-15 -44 99 -1 c59 -1 97 3 93 8 -3 6 -30 19 -61 30 -30 12
-65 28 -78 36 -23 15 -24 15 -38 -29z"/>
<path d="M215 31 c-21 -5 -25 -8 -14 -13 8 -3 26 0 40 8 26 14 21 15 -26 5z"/>
<path d="M315 19 c-4 -6 -5 -12 -2 -15 2 -3 7 2 10 11 7 17 1 20 -8 4z"/>
</g>
</svg>
