<svg width="39" height="39" viewBox="0 0 34 34" fill="none" xmlns="http://www.w3.org/2000/svg">
<path d="M17.2832 5.73291C18.0468 5.73291 18.6659 6.35196 18.6659 7.1156V15.4117H26.962C27.7256 15.4117 28.3447 16.0308 28.3447 16.7944C28.3447 17.5581 27.7256 18.1771 26.962 18.1771H18.6659V26.4732C18.6659 27.2369 18.0468 27.8559 17.2832 27.8559C16.5195 27.8559 15.9005 27.2369 15.9005 26.4732V18.1771H7.60437C6.84073 18.1771 6.22168 17.5581 6.22168 16.7944C6.22168 16.0308 6.84073 15.4117 7.60437 15.4117H15.9005V7.1156C15.9005 6.35196 16.5195 5.73291 17.2832 5.73291Z" fill="#E7E7E7"/>
</svg>
