<?xml version="1.0" standalone="no"?>
<!DOCTYPE svg PUBLIC "-//W3C//DTD SVG 20010904//EN"
 "http://www.w3.org/TR/2001/REC-SVG-20010904/DTD/svg10.dtd">
<svg version="1.0" xmlns="http://www.w3.org/2000/svg"
 width="1024.000000pt" height="1364.000000pt" viewBox="0 0 1024.000000 1364.000000"
 preserveAspectRatio="xMidYMid meet">

<g transform="translate(0.000000,1364.000000) scale(0.100000,-0.100000)"
fill="#000000" stroke="none">
<path d="M5222 12553 c-15 -3 -22 -10 -18 -19 3 -7 2 -13 -2 -13 -24 4 -52 -3
-52 -12 0 -5 5 -7 10 -4 6 3 10 2 10 -4 0 -5 -4 -13 -10 -16 -5 -3 -10 -1 -10
4 0 6 -7 11 -15 11 -8 0 -15 -5 -15 -12 0 -6 -3 -8 -7 -5 -3 4 -22 -26 -41
-66 -47 -98 -51 -102 -70 -76 -13 19 -16 20 -21 7 -5 -13 -16 -7 -55 28 -33
29 -59 44 -77 44 -15 0 -30 4 -33 9 -9 15 -84 18 -79 4 3 -9 -6 -12 -29 -11
-18 0 -49 -6 -70 -15 -37 -16 -155 -33 -196 -28 -12 1 -39 -3 -59 -10 -28 -9
-38 -9 -41 0 -2 6 -8 11 -13 11 -6 0 -7 -6 -3 -12 5 -8 1 -8 -10 1 -15 13 -19
13 -27 0 -7 -10 -8 -4 -4 20 5 23 4 31 -4 27 -6 -4 -11 -14 -11 -22 0 -8 -8
-17 -17 -21 -10 -3 -30 -17 -45 -31 l-28 -26 0 45 c0 55 -16 35 -18 -24 -2
-48 -17 -67 -56 -71 -15 -2 -31 -7 -34 -13 -10 -15 -92 -55 -119 -58 -24 -2
-57 -26 -81 -57 -7 -10 -20 -18 -28 -18 -8 0 -14 -3 -14 -7 -1 -14 -66 -83
-78 -83 -16 0 -16 -20 1 -21 6 0 3 -5 -8 -10 -20 -10 -75 -90 -75 -110 0 -5
-11 -26 -23 -47 -33 -51 -84 -163 -103 -225 -9 -29 -30 -81 -47 -117 -38 -79
-47 -166 -22 -223 8 -21 22 -40 29 -43 10 -4 12 -14 5 -42 -4 -21 -12 -93 -17
-161 -6 -87 -13 -125 -23 -132 -11 -6 -13 -31 -11 -111 6 -181 7 -196 16 -191
5 4 6 -16 1 -48 -15 -95 -7 -155 15 -119 5 8 12 12 15 8 3 -3 -1 -13 -10 -21
-22 -22 -19 -46 8 -57 12 -5 17 -9 11 -9 -6 -1 -15 -16 -19 -33 -4 -18 -9 -40
-12 -48 -2 -8 -4 -71 -4 -140 -1 -104 3 -142 25 -225 14 -55 30 -101 35 -103
5 -2 6 -12 3 -24 -3 -13 -1 -19 5 -15 6 4 8 -4 5 -20 -3 -15 -1 -23 5 -20 5 3
15 1 23 -5 12 -8 11 -9 -4 -4 -16 6 -18 3 -12 -26 3 -17 11 -50 18 -72 l11
-41 11 28 c13 34 28 30 32 -9 1 -16 6 -43 9 -60 8 -38 -9 -104 -35 -134 -11
-13 -20 -27 -20 -31 0 -16 55 -58 83 -65 47 -10 52 5 32 98 -14 62 -19 144
-23 326 -4 237 -4 242 16 242 19 0 19 -3 8 -42 -27 -97 -2 -511 38 -626 8 -23
15 -43 15 -45 -3 -8 46 -154 54 -165 5 -7 11 -25 12 -40 2 -27 67 -162 104
-217 12 -16 21 -41 21 -55 0 -14 3 -20 8 -13 4 6 7 -30 8 -80 0 -81 12 -298
19 -367 2 -14 -4 -30 -14 -37 -25 -20 -36 -15 -16 7 34 38 -15 24 -89 -26 -37
-25 -93 -54 -125 -65 -31 -11 -74 -32 -96 -48 -41 -29 -147 -66 -400 -140 -77
-23 -179 -56 -226 -75 -138 -54 -293 -100 -625 -185 -127 -33 -177 -54 -286
-117 -98 -57 -162 -115 -231 -207 -72 -96 -110 -165 -142 -262 -15 -44 -42
-109 -60 -145 -18 -36 -38 -83 -43 -105 -5 -22 -41 -132 -80 -245 -72 -210
-105 -313 -242 -760 -43 -140 -102 -331 -131 -425 -28 -93 -67 -219 -85 -280
-18 -60 -58 -171 -90 -245 -31 -74 -74 -178 -96 -230 -21 -52 -57 -133 -78
-180 -85 -186 -99 -218 -125 -280 -15 -36 -34 -86 -41 -113 l-12 -47 40 -21
c22 -11 69 -41 104 -65 88 -62 352 -196 449 -230 44 -15 118 -46 165 -69 47
-23 101 -48 120 -55 65 -25 63 -19 57 -195 -7 -184 -23 -289 -68 -430 -112
-356 -122 -404 -149 -715 -11 -129 -25 -284 -30 -345 -34 -396 -57 -1547 -36
-1858 l8 -127 484 0 484 0 5 23 c15 68 99 500 106 547 27 164 63 331 76 347
12 16 13 6 8 -87 -3 -58 -10 -150 -15 -205 -5 -55 -14 -167 -20 -250 -5 -82
-19 -196 -30 -253 -11 -56 -20 -107 -20 -112 0 -7 996 -10 2765 -10 l2765 0
16 25 c15 24 15 36 0 178 -18 169 -36 377 -36 420 0 38 -24 44 -78 18 -55 -27
-56 -25 -71 78 -26 181 -27 165 11 179 19 6 49 26 67 44 32 31 32 33 30 115
-1 46 1 86 4 89 18 18 136 -552 157 -756 6 -63 23 -177 37 -253 l25 -137 449
0 449 0 0 29 c0 15 7 122 15 236 18 252 22 913 6 1135 -24 327 -32 419 -47
535 -8 66 -19 156 -24 200 -6 44 -21 166 -35 270 -14 105 -36 277 -50 384 -29
228 -40 276 -101 436 -76 199 -94 270 -101 387 l-6 106 96 31 c53 17 127 46
164 65 38 19 92 44 121 55 126 50 360 166 390 194 42 41 45 101 6 152 -14 18
-40 77 -59 130 -18 53 -41 105 -49 114 -9 10 -29 56 -45 102 -16 46 -41 116
-56 154 -15 39 -46 124 -69 190 -23 66 -79 217 -123 335 -208 554 -274 751
-488 1475 -47 159 -111 338 -145 405 -10 19 -34 76 -55 125 -49 120 -159 329
-203 385 -118 150 -283 274 -452 340 -90 35 -224 58 -409 70 -208 12 -269 21
-471 65 -85 19 -193 39 -240 45 -47 6 -121 24 -165 40 -126 45 -212 68 -317
85 -54 8 -121 24 -150 35 -29 11 -59 20 -67 20 -18 0 28 -50 76 -82 18 -13 35
-32 38 -43 3 -11 11 -37 17 -57 l11 -38 58 0 c60 0 93 -18 143 -77 49 -57 -8
-311 -94 -420 -29 -37 -128 -114 -211 -164 -87 -52 -263 -112 -379 -129 -41
-6 -210 -13 -375 -17 -301 -6 -448 2 -536 30 -38 11 -52 27 -26 27 7 0 5 5 -5
10 -9 6 -14 18 -11 28 2 10 -3 24 -11 32 -15 11 -15 14 1 26 10 7 13 14 6 14
-9 0 -8 8 2 28 8 15 12 35 9 45 -3 9 0 19 8 22 20 8 103 -20 100 -34 -1 -7 2
-10 7 -6 6 3 28 -3 50 -15 31 -15 50 -18 87 -13 32 4 45 3 41 -4 -12 -19 34
-22 80 -7 24 8 52 13 61 10 19 -6 46 39 35 58 -3 6 0 5 8 -1 15 -15 49 -17 49
-4 0 5 -8 12 -17 15 -10 3 3 3 30 1 49 -5 65 8 22 19 -14 4 -25 13 -25 21 0
18 16 20 24 3 3 -7 4 -4 3 7 -1 12 5 21 18 23 11 2 24 10 28 18 4 8 13 14 20
14 7 0 12 11 12 25 0 17 -6 25 -17 25 -10 0 -17 -5 -15 -12 1 -6 -6 -14 -15
-16 -10 -2 -18 1 -18 6 0 13 84 102 96 102 5 0 17 9 27 20 9 11 12 20 7 20 -6
0 -10 7 -10 15 0 8 5 15 10 15 6 0 10 6 10 14 0 8 7 16 15 20 19 7 20 26 1 26
-8 0 -17 6 -20 13 -3 6 -3 2 0 -10 3 -13 1 -23 -5 -23 -6 0 -11 4 -11 9 0 5
-3 16 -6 25 -4 12 0 16 15 16 12 0 21 4 21 10 0 5 -7 7 -15 4 -8 -4 -15 -1
-15 5 0 6 -7 11 -15 11 -8 0 -15 3 -15 8 0 10 38 42 50 42 6 0 10 7 10 15 0
17 36 39 50 30 6 -3 10 4 10 16 0 17 3 19 13 10 11 -8 19 -5 35 14 14 16 32
25 52 25 23 0 30 4 30 20 0 21 24 28 35 10 3 -5 18 -10 33 -9 l27 1 -27 12
c-20 8 -25 15 -18 26 7 12 12 12 22 2 17 -17 36 -15 60 8 23 21 68 27 68 10 0
-10 -12 -13 -45 -11 l-20 2 20 -16 c19 -16 19 -16 -7 -10 -22 6 -28 4 -28 -9
0 -11 9 -16 30 -16 34 0 38 -7 13 -26 -17 -13 -17 -13 0 -14 19 0 23 -15 7
-25 -6 -3 -10 -13 -10 -22 0 -11 7 -14 24 -11 22 4 24 1 24 -24 -1 -15 -7 -33
-15 -39 -7 -6 -13 -20 -13 -30 0 -10 -10 -25 -22 -33 -12 -9 -19 -19 -15 -22
4 -4 15 0 25 9 26 24 35 21 28 -9 l-7 -25 22 20 c13 12 25 18 28 15 3 -3 0 -9
-7 -13 -18 -11 -4 -41 20 -41 10 0 17 -4 13 -10 -3 -5 -12 -7 -20 -3 -8 3 -15
0 -15 -5 0 -11 32 -25 46 -20 10 3 13 -10 6 -34 -2 -10 -11 -18 -18 -18 -8 0
-14 -7 -14 -15 0 -12 4 -13 25 -3 14 6 25 15 25 20 0 4 8 8 18 8 14 0 15 -2 2
-10 -11 -7 -12 -12 -3 -21 8 -8 20 -2 46 26 39 41 61 100 72 187 6 50 4 57 -9
52 -16 -6 -17 -3 -21 73 0 12 -8 30 -16 40 -23 26 -49 83 -49 107 0 12 -7 34
-15 50 -8 15 -15 54 -16 85 0 31 -3 50 -6 44 -2 -7 -9 -13 -14 -13 -12 0 -12
47 1 55 17 11 11 24 -15 31 -27 7 -34 24 -10 24 8 0 15 5 15 10 0 6 -4 10 -10
10 -5 0 -7 15 -4 33 11 63 11 106 1 100 -7 -4 -7 1 -3 13 5 10 10 37 12 58 3
43 11 64 57 166 16 36 30 70 32 75 1 6 5 17 8 25 19 47 37 113 33 118 -6 5
-11 -7 -21 -52 -3 -15 -8 -27 -10 -24 -2 2 1 21 6 43 6 22 18 74 27 115 9 41
20 77 24 78 5 2 8 22 7 45 l-1 42 -10 -43 c-14 -65 -63 -69 -52 -5 3 14 -4 36
-16 53 -12 16 -26 54 -33 85 -8 38 -15 54 -24 51 -7 -3 -13 -1 -13 5 0 6 -4 8
-9 5 -5 -3 -11 1 -14 8 -3 8 -1 17 6 20 7 3 -7 5 -29 4 -32 -2 -50 4 -75 25
-95 75 -266 197 -276 197 -7 0 -13 5 -13 10 0 6 -4 10 -9 10 -15 0 7 -55 30
-76 10 -9 19 -25 19 -36 0 -10 5 -18 10 -18 6 0 10 -7 10 -15 0 -8 -5 -15 -11
-15 -6 0 -3 -7 5 -16 12 -12 13 -20 6 -35 -14 -24 -23 -25 -15 0 6 20 -22 51
-33 35 -11 -15 -36 -10 -50 9 -8 10 -19 14 -25 10 -19 -12 -71 -3 -84 14 -15
20 -36 6 -30 -19 4 -12 1 -18 -6 -15 -7 2 -13 13 -15 25 -4 24 -12 28 -29 11
-7 -7 -12 -4 -16 10 -4 16 0 21 16 21 46 0 64 13 86 57 12 25 21 46 19 47 -14
11 -122 27 -144 23 -66 -12 -87 -18 -109 -33 -24 -16 -77 -12 -101 7 -6 5 -33
11 -59 14 -45 4 -85 27 -85 47 0 14 -26 37 -54 48 -24 9 -26 15 -26 66 0 41 6
64 22 87 16 22 22 47 24 95 3 94 12 129 49 207 37 78 44 103 31 124 -16 25
-16 69 -1 75 8 3 15 12 15 21 0 10 10 15 28 15 24 1 25 2 10 14 -24 18 -13 26
30 19 31 -5 34 -4 29 11 -4 10 -7 20 -7 22 0 3 -4 2 -10 -1 -5 -3 -19 3 -30
13 -12 11 -32 20 -45 20 -27 0 -85 23 -85 34 0 5 -9 8 -20 8 -22 0 -27 15 -7
24 6 3 4 4 -6 3 -10 -1 -23 8 -30 22 -9 17 -22 25 -47 27 -52 5 -60 7 -60 15
0 4 6 10 13 12 7 3 6 6 -5 6 -9 1 -20 -3 -23 -9 -3 -5 -21 -9 -38 -9 -24 1
-26 3 -9 6 12 2 22 9 22 15 0 5 -7 8 -15 4 -10 -3 -15 1 -15 12 -1 15 -3 15
-16 -3 l-16 -20 4 20 c2 16 -2 19 -21 17 -14 -1 -28 3 -32 10 -6 9 -11 9 -22
-1 -8 -6 -28 -10 -44 -7 -15 2 -31 5 -35 5 -5 1 -8 8 -8 16 0 8 -4 15 -9 15
-5 0 -12 12 -16 28 -13 44 -12 60 0 55 8 -2 15 10 19 34 7 45 25 75 33 56 2
-7 9 -13 15 -13 6 0 6 6 -2 15 -16 19 -6 45 18 45 11 0 25 7 32 15 7 8 19 15
27 15 7 0 16 7 19 15 3 8 16 17 27 21 31 10 46 34 47 74 0 28 3 32 11 20 9
-12 10 -10 6 8 -5 19 -3 21 9 11 8 -6 15 -21 15 -33 1 -15 3 -12 8 9 3 17 11
29 16 28 6 -1 16 4 24 10 8 7 12 7 9 2 -4 -6 5 -15 18 -22 14 -6 26 -7 30 -2
3 5 -2 9 -10 9 -9 0 -16 5 -16 10 0 6 5 10 10 10 6 0 10 9 10 19 0 11 13 29
29 40 47 34 59 23 17 -14 -43 -38 -42 -56 1 -36 16 7 30 13 33 13 3 0 10 4 17
10 8 6 19 5 35 -5 33 -21 68 -30 68 -18 0 6 -7 11 -16 11 -9 0 -23 8 -30 18
-16 21 -18 36 -3 27 6 -4 9 4 7 22 -2 23 0 27 16 25 17 -3 18 -1 7 11 -7 10
-8 17 -2 21 6 4 15 -4 22 -16 7 -12 18 -29 26 -36 22 -23 16 11 -8 42 -15 19
-18 31 -11 38 13 13 52 1 52 -17 0 -7 7 -15 14 -18 11 -4 13 -1 9 10 -4 11 -2
14 5 9 8 -5 12 0 12 13 0 11 7 26 15 34 8 8 11 18 7 21 -3 4 1 4 11 0 10 -3
17 -1 17 6 0 6 5 8 10 5 8 -5 7 -11 -1 -21 -8 -10 -8 -14 0 -14 6 0 11 5 11
11 0 6 7 9 14 6 10 -4 13 -1 10 7 -3 7 2 19 11 26 16 13 18 6 16 -50 l-1 -25
11 25 c13 31 13 32 33 24 12 -4 15 -13 10 -28 -5 -16 -3 -18 6 -10 16 16 48 6
62 -20 7 -11 12 -23 11 -26 -1 -3 15 -6 35 -6 20 0 67 -15 105 -32 56 -27 67
-36 67 -57 0 -14 4 -25 9 -25 5 0 12 -10 14 -22 l4 -23 2 22 c1 22 2 22 21 6
28 -24 25 -33 -12 -33 -17 0 -28 -3 -24 -7 3 -4 24 -6 46 -5 34 2 39 0 33 -14
-4 -12 -3 -15 5 -10 7 4 12 1 12 -9 0 -8 7 -18 15 -21 8 -4 15 -15 15 -25 0
-10 5 -19 10 -19 6 0 10 -9 10 -19 0 -11 6 -22 13 -24 7 -4 6 -6 -5 -6 -9 -1
-23 5 -31 13 -12 12 -14 10 -14 -15 0 -23 3 -27 14 -17 12 10 13 7 8 -15 -6
-21 -4 -27 10 -27 12 0 15 5 11 16 -4 10 -1 14 6 12 18 -6 22 -38 5 -38 -10 0
-14 -15 -14 -57 0 -32 -3 -69 -7 -83 -6 -21 -5 -22 4 -7 12 19 30 23 30 6 0
-27 35 -44 89 -44 54 0 56 -1 62 -30 4 -17 8 -48 9 -70 2 -30 4 -34 7 -15 3
14 10 28 17 33 8 5 7 10 -4 17 -12 8 -11 10 8 10 17 0 22 6 22 25 0 14 5 25
11 25 8 0 9 -14 5 -43 -6 -37 -3 -47 18 -72 14 -16 28 -43 32 -59 4 -17 17
-38 30 -49 13 -10 24 -26 24 -35 0 -9 6 -28 13 -42 21 -39 31 -113 41 -305 4
-66 10 -160 13 -210 8 -116 8 -95 -6 -285 -14 -183 -12 -299 4 -264 6 12 25
34 43 49 17 15 32 34 32 42 0 8 9 26 20 40 16 21 18 34 13 84 -3 33 -2 59 3
59 5 0 15 14 23 31 10 24 11 36 2 55 -16 35 -14 71 4 78 12 4 15 -4 15 -38 0
-26 5 -46 13 -49 9 -4 9 -6 -1 -6 -9 -1 -11 -11 -6 -37 5 -30 4 -35 -7 -29
-11 6 -12 5 -2 -5 7 -8 14 -12 16 -9 5 6 57 156 71 207 7 23 15 39 19 36 4 -4
8 4 9 17 4 62 3 79 -2 79 -3 0 -5 35 -4 78 1 61 6 88 27 132 15 31 27 73 27
95 0 22 7 53 15 68 8 15 10 25 5 22 -9 -6 -13 8 -13 45 1 8 5 38 10 67 7 35 7
50 0 46 -7 -4 -7 2 -2 18 4 13 9 62 11 109 2 47 9 129 15 182 7 53 9 128 6
167 -6 73 5 101 39 101 9 0 14 11 14 30 0 25 4 29 23 27 12 -1 26 -6 30 -12
13 -16 -4 38 -19 60 -8 11 -14 42 -14 70 0 77 -25 145 -80 220 -36 49 -50 77
-50 100 0 31 -13 45 -45 50 -5 0 -9 6 -8 12 2 7 -6 15 -17 18 -11 3 -17 12
-14 20 6 15 34 9 46 -9 4 -6 10 -7 14 -3 13 13 -23 40 -52 40 -16 0 -35 7 -42
16 -12 15 -13 14 -8 -1 7 -22 -1 -23 -20 -4 -18 19 -18 26 3 26 14 0 13 4 -7
25 -12 13 -27 22 -33 18 -6 -3 -7 -1 -3 5 3 5 3 12 -2 14 -4 1 -31 51 -60 111
-29 59 -57 107 -62 107 -6 0 -10 7 -10 15 0 8 -11 17 -25 21 -14 3 -22 11 -18
17 3 5 2 8 -3 4 -5 -3 -25 -2 -44 3 -27 6 -29 8 -11 9 40 2 15 14 -45 22 -33
4 -72 18 -94 33 -22 14 -46 23 -55 20 -11 -5 -14 -2 -9 10 4 10 1 16 -8 16
-23 0 -62 37 -46 44 7 3 0 2 -16 -1 -19 -4 -27 -2 -22 5 3 6 -3 12 -16 14 -13
2 -22 7 -21 13 3 11 63 14 63 3 0 -4 7 -8 15 -8 8 0 15 5 15 10 0 6 -7 13 -15
16 -8 4 -15 12 -15 20 0 12 -12 16 -36 13 -4 0 -10 3 -13 8 -18 25 -185 50
-208 31 -10 -8 -13 -7 -13 3 0 14 -61 21 -108 12z m204 -35 c7 -8 -45 -20 -56
-13 -5 3 -11 1 -15 -5 -3 -5 -16 -10 -27 -10 -11 0 -29 -10 -39 -22 -11 -11
-19 -16 -19 -10 0 6 7 17 15 26 8 8 15 20 15 26 0 8 10 10 25 8 14 -3 27 -3
29 1 5 7 64 6 72 -1z m-162 -40 c-3 -23 -16 -44 -44 -69 -22 -20 -40 -41 -40
-48 0 -7 -4 -10 -9 -7 -5 4 -11 1 -13 -6 -5 -13 -28 -2 -28 13 0 6 4 8 9 4 5
-3 13 0 17 6 5 8 3 9 -6 4 -10 -6 -12 -4 -7 9 4 10 10 30 14 44 7 29 43 82 43
63 0 -6 5 -11 11 -11 5 0 8 4 4 9 -3 5 5 12 17 14 13 2 26 5 29 6 4 0 5 -14 3
-31z m291 2 c3 -5 2 -10 -4 -10 -5 0 -13 5 -16 10 -3 6 -2 10 4 10 5 0 13 -4
16 -10z m-425 -80 l-19 -55 3 42 c3 36 22 80 32 71 1 -2 -6 -28 -16 -58z
m-310 0 c12 -8 11 -10 -7 -10 -13 0 -23 5 -23 10 0 13 11 13 30 0z m-50 -10
c0 -5 -2 -10 -4 -10 -3 0 -8 5 -11 10 -3 6 -1 10 4 10 6 0 11 -4 11 -10z m785
0 c-3 -5 -10 -10 -16 -10 -5 0 -9 5 -9 10 0 6 7 10 16 10 8 0 12 -4 9 -10z
m-645 -15 c19 -23 8 -25 -14 -4 -11 11 -15 19 -9 19 6 0 16 -7 23 -15z m607 9
c-3 -3 -12 -4 -19 -1 -8 3 -5 6 6 6 11 1 17 -2 13 -5z m-32 -14 c3 -5 -1 -10
-9 -10 -9 0 -16 5 -16 10 0 6 4 10 9 10 6 0 13 -4 16 -10z m112 -6 c-3 -3 -12
-4 -19 -1 -8 3 -5 6 6 6 11 1 17 -2 13 -5z m-882 -14 c3 -5 -1 -10 -9 -10 -9
0 -16 5 -16 10 0 6 4 10 9 10 6 0 13 -4 16 -10z m85 0 c13 -9 13 -10 0 -10 -8
0 -22 5 -30 10 -13 9 -13 10 0 10 8 0 22 -5 30 -10z m35 -9 c3 -5 1 -12 -5
-16 -5 -3 -10 1 -10 9 0 18 6 21 15 7z m782 3 c-3 -3 -12 -4 -19 -1 -8 3 -5 6
6 6 11 1 17 -2 13 -5z m298 -114 c3 -5 1 -10 -4 -10 -6 0 -11 5 -11 10 0 6 2
10 4 10 3 0 8 -4 11 -10z m362 -466 c-3 -3 -12 -4 -19 -1 -8 3 -5 6 6 6 11 1
17 -2 13 -5z m-1715 -416 c-7 -7 -12 -8 -12 -2 0 14 12 26 19 19 2 -3 -1 -11
-7 -17z m-102 -80 c0 -23 17 -24 24 0 3 10 4 6 3 -8 -2 -22 -7 -25 -44 -28
-26 -2 -43 1 -43 7 0 6 7 11 15 11 21 0 19 28 -2 33 -10 2 -3 4 15 4 24 0 32
-4 32 -19z m1149 -313 c0 -5 -4 -3 -9 5 -5 8 -9 22 -9 30 0 16 17 -16 18 -35z
m131 35 c0 -5 -2 -10 -4 -10 -3 0 -8 5 -11 10 -3 6 -1 10 4 10 6 0 11 -4 11
-10z m42 -68 c-7 -2 -10 -13 -6 -27 3 -12 1 -26 -4 -29 -5 -3 -12 10 -14 29
-4 33 7 48 27 37 5 -3 4 -7 -3 -10z m-135 2 c-3 -3 -12 -4 -19 -1 -8 3 -5 6 6
6 11 1 17 -2 13 -5z m-1272 -351 c40 -19 47 -38 10 -29 -14 4 -46 9 -71 13
l-46 6 28 13 c38 17 38 17 79 -3z m-535 -43 c0 -5 -5 -10 -11 -10 -5 0 -7 5
-4 10 3 6 8 10 11 10 2 0 4 -4 4 -10z m688 -51 c20 -31 0 -22 -38 18 l-35 36
31 -17 c17 -10 36 -27 42 -37z m-168 20 c0 -11 -27 -12 -34 0 -3 4 -3 11 0 14
8 8 34 -3 34 -14z m100 -51 c0 -3 7 -8 16 -10 32 -7 -10 -38 -60 -45 l-49 -6
21 21 c12 12 24 33 28 46 5 22 8 23 25 13 10 -6 19 -15 19 -19z m-658 0 c-7
-7 -12 -24 -12 -39 0 -15 -4 -31 -10 -34 -13 -8 -13 14 1 54 6 17 16 31 22 31
7 0 7 -4 -1 -12z m648 -78 c0 -13 -46 -24 -62 -14 -9 6 -4 11 17 15 45 10 45
10 45 -1z m-445 -72 c3 1 5 -1 4 -4 0 -4 5 -10 11 -14 8 -5 7 -11 -4 -23 -9
-8 -16 -22 -16 -29 1 -9 5 -7 14 5 7 9 23 17 35 17 18 0 20 3 11 19 -14 28
-12 35 5 17 8 -8 15 -19 15 -24 0 -6 6 -13 13 -16 8 -3 5 -11 -11 -25 -15 -13
-18 -21 -10 -24 8 -3 6 -6 -4 -6 -10 -1 -18 -5 -18 -11 0 -10 69 -32 81 -25
16 11 79 18 174 20 84 2 106 6 138 25 21 12 40 20 43 18 8 -8 -8 -88 -17 -88
-5 0 -9 -10 -9 -23 0 -13 -3 -27 -7 -31 -4 -4 -8 -29 -9 -56 -1 -46 -5 -53
-82 -142 -80 -92 -172 -168 -205 -168 -9 0 -19 -4 -22 -10 -9 -15 -25 -12 -25
5 0 19 -17 19 -37 0 -18 -19 -48 -16 -48 4 0 8 -8 17 -18 20 -10 4 -18 11 -17
16 0 6 -8 11 -19 13 -12 2 -29 14 -40 28 -13 17 -29 24 -54 24 -29 0 -37 5
-47 31 -11 25 -11 32 -1 39 9 5 10 10 2 14 -15 10 -14 66 1 66 6 0 3 7 -8 16
-18 15 -18 15 4 11 22 -5 23 -5 8 18 -9 13 -12 26 -7 30 5 3 12 -1 15 -7 3 -7
4 10 1 37 -4 28 -6 58 -6 67 0 27 34 67 56 68 22 0 49 35 39 51 -11 18 5 59
21 53 10 -4 15 0 15 12 1 18 2 18 16 -1 8 -11 17 -19 19 -17z m-260 -57 c3 -5
1 -12 -5 -16 -5 -3 -10 1 -10 9 0 18 6 21 15 7z m415 -24 c0 -9 -14 -14 -37
-15 -38 -1 -38 -1 -13 12 33 18 50 19 50 3z m230 -17 c-8 -5 -22 -9 -30 -9
-10 0 -8 3 5 9 27 12 43 12 25 0z m-654 -35 c-4 -42 -16 -60 -16 -22 0 24 9
57 15 57 2 0 2 -16 1 -35z m-16 -74 c0 -10 -9 -21 -20 -24 -23 -6 -25 5 -8 32
14 23 28 18 28 -8z m-26 -82 c-11 -18 -24 -8 -24 19 1 26 1 26 15 8 8 -10 12
-23 9 -27z m949 26 c-3 -9 -8 -14 -10 -11 -3 3 -2 9 2 15 9 16 15 13 8 -4z
m1526 -88 c0 -12 -4 -31 -9 -42 -6 -15 -9 -8 -9 28 -1 30 3 46 9 42 6 -3 10
-16 9 -28z m-1619 -14 c0 -21 3 -24 12 -15 17 17 29 15 22 -3 -3 -8 -9 -14
-12 -13 -20 2 -32 -3 -32 -14 0 -15 -45 -38 -72 -38 -10 0 -24 11 -30 25 -14
32 1 50 58 70 53 19 54 19 54 -12z m-833 -185 c-2 -13 -4 -5 -4 17 -1 22 1 32
4 23 2 -10 2 -28 0 -40z m170 30 c-3 -8 -6 -5 -6 6 -1 11 2 17 5 13 3 -3 4
-12 1 -19z m2190 -70 c2 -17 0 -19 -7 -8 -5 8 -6 18 -4 22 8 12 10 10 11 -14z
m-2460 -60 c-3 -7 -5 -2 -5 12 0 14 2 19 5 13 2 -7 2 -19 0 -25z m1233 -104
c0 -9 23 -13 83 -13 102 1 119 -2 114 -15 -6 -16 12 -46 28 -46 7 0 22 8 31
18 17 16 18 16 11 0 -3 -10 -2 -18 3 -18 6 0 10 -8 9 -17 0 -11 -3 -13 -6 -5
-5 13 -59 17 -67 4 -8 -14 -239 -3 -248 11 -4 7 -8 8 -8 3 0 -5 -6 -3 -14 3
-7 6 -21 9 -30 5 -12 -4 -15 -2 -11 9 6 13 -23 26 -75 32 -32 4 -34 7 -8 15
15 4 55 4 90 0 73 -9 82 -6 68 21 -15 27 -1 47 17 24 7 -11 13 -24 13 -31z
m-50 16 c0 -5 -5 -10 -11 -10 -5 0 -7 5 -4 10 3 6 8 10 11 10 2 0 4 -4 4 -10z
m277 -60 c1 -11 -2 -20 -8 -20 -5 0 -9 9 -9 20 0 11 4 20 8 20 4 0 8 -9 9 -20z
m-1093 -96 c4 -10 1 -14 -6 -12 -15 5 -23 28 -10 28 5 0 13 -7 16 -16z m28
-59 c6 -14 15 -25 19 -25 4 0 12 -13 17 -28 5 -16 33 -67 62 -113 62 -99 67
-123 28 -127 -16 -2 -28 1 -28 7 0 6 -6 11 -13 11 -17 0 -60 74 -82 140 -10
30 -24 64 -31 75 -6 11 -15 35 -19 53 -6 28 -4 32 14 32 13 0 26 -10 33 -25z
m1658 -5 c0 -5 -5 -10 -11 -10 -5 0 -7 5 -4 10 3 6 8 10 11 10 2 0 4 -4 4 -10z
m-897 -30 c30 -24 37 -25 37 -5 0 20 42 29 103 20 62 -8 74 -8 108 0 17 5 31
1 42 -10 13 -12 21 -14 36 -5 30 16 48 12 54 -11 5 -20 7 -20 31 -4 25 17 26
17 26 -6 0 -13 -7 -33 -15 -43 -21 -28 -19 -34 9 -29 31 6 45 -16 20 -34 -10
-8 -49 -23 -87 -34 -37 -12 -70 -25 -73 -30 -3 -5 -15 -10 -27 -10 -15 -1 -17
-3 -5 -6 9 -2 33 3 53 11 48 20 55 20 56 -1 1 -17 2 -17 6 0 3 10 14 17 29 17
23 0 25 -4 24 -47 -1 -14 -80 -53 -106 -53 -14 0 -35 -5 -47 -12 -40 -22 -229
-26 -312 -7 -54 13 -115 39 -115 51 0 3 -7 14 -16 22 -14 15 -12 16 18 16 31
1 32 1 14 15 -11 8 -28 15 -37 15 -21 0 -33 16 -24 31 5 7 13 5 25 -6 15 -14
18 -14 23 -1 4 11 14 12 44 6 49 -12 68 11 20 23 -18 5 -34 12 -37 16 -3 3
-25 6 -50 6 -38 0 -46 4 -57 26 -15 31 -4 83 19 87 9 2 28 -8 43 -21 l27 -23
28 28 c34 34 76 37 113 8z m-272 -31 c15 -7 18 -16 13 -32 -8 -28 -26 -39 -39
-26 -6 6 -6 12 2 17 8 5 9 13 3 22 -19 30 -11 37 21 19z m732 -17 c-3 -12 -9
-22 -14 -22 -12 0 -11 7 2 32 13 25 20 19 12 -10z m387 -2 c0 -6 -6 -21 -14
-33 -8 -12 -17 -38 -21 -57 -4 -19 -11 -40 -16 -45 -11 -14 -15 -88 -5 -103 4
-6 -2 -29 -14 -51 -11 -22 -20 -49 -20 -60 0 -10 -7 -22 -16 -25 -10 -4 -14
-14 -11 -26 3 -12 -2 -25 -12 -33 -10 -6 -21 -23 -25 -37 -3 -14 -24 -38 -45
-55 -22 -16 -45 -40 -52 -52 -7 -13 -14 -21 -17 -18 -7 6 -32 -22 -33 -37 -1
-7 -5 -2 -9 12 -8 25 -8 25 -9 2 -1 -19 -5 -22 -23 -16 -19 6 -21 4 -11 -7 20
-24 -2 -39 -42 -29 -9 3 -29 5 -63 9 -7 0 -10 6 -6 13 4 7 3 8 -4 4 -7 -4 -12
-13 -12 -20 0 -7 -7 -13 -15 -13 -8 0 -15 4 -15 9 0 4 -4 8 -10 8 -5 0 -10 -6
-10 -14 0 -30 -79 -23 -102 9 -4 6 -8 1 -8 -10 -1 -18 -2 -18 -10 3 -5 12 -12
22 -14 22 -3 0 -2 -8 1 -17 5 -13 2 -15 -11 -10 -11 4 -15 3 -10 -4 7 -13 -13
-29 -36 -29 -13 0 -13 1 0 10 13 8 12 10 -3 10 -10 0 -16 4 -13 9 6 9 -21 37
-29 29 -2 -2 -5 -18 -7 -36 -2 -30 -18 -47 -18 -19 0 8 -3 8 -9 -2 -8 -12 -12
-12 -25 -2 -12 10 -13 16 -3 26 7 7 15 11 19 9 4 -2 9 0 12 5 7 10 -31 26 -52
22 -10 -1 -12 4 -7 18 5 17 3 20 -12 15 -10 -4 -23 -13 -30 -22 -7 -8 -19 -12
-29 -8 -9 3 -23 1 -30 -5 -11 -9 -15 -7 -20 5 -3 9 -16 16 -28 16 -16 0 -18 2
-7 9 13 8 13 12 1 26 -12 15 -10 16 16 11 26 -6 25 -5 -6 8 -46 19 -60 19 -60
1 0 -8 4 -15 8 -15 4 0 8 -9 8 -20 0 -11 -4 -20 -9 -20 -5 0 -6 -7 -3 -16 5
-14 4 -15 -9 -4 -8 7 -15 21 -15 31 0 21 -29 26 -47 8 -18 -18 -47 -6 -53 21
-3 14 -16 29 -28 35 -12 5 -22 13 -22 18 0 4 4 6 9 3 4 -3 16 1 27 8 20 15 56
7 85 -20 12 -11 19 -12 24 -4 4 6 15 8 25 5 11 -3 20 0 24 10 4 12 10 14 25 5
11 -5 22 -6 25 -1 3 4 37 11 75 15 39 4 72 12 75 19 3 9 7 8 15 -3 8 -12 11
-12 17 5 5 11 3 20 -4 23 -7 2 -12 8 -12 13 0 4 7 6 15 3 9 -4 15 0 15 10 0 9
-8 16 -17 17 -11 0 -13 3 -5 6 6 2 10 9 6 14 -11 18 9 9 27 -13 11 -11 19 -17
19 -12 0 6 -5 15 -10 20 -8 8 -6 15 5 24 12 10 15 10 15 -1 0 -11 2 -11 9 0 8
12 12 12 25 2 13 -11 18 -10 31 3 17 17 30 22 22 9 -8 -12 104 -6 116 6 5 5
23 7 38 4 23 -4 29 -2 29 12 0 13 5 16 26 11 18 -5 24 -3 19 5 -4 6 -1 16 6
21 10 7 9 8 -6 3 -46 -17 -238 -43 -205 -29 8 4 21 15 30 24 14 16 107 50 136
50 8 0 29 16 48 35 18 19 36 32 39 29 9 -10 65 28 75 51 11 25 0 51 -17 41 -6
-4 -11 0 -11 10 0 11 6 15 19 11 23 -6 42 5 45 25 1 9 16 28 34 43 25 21 35
24 49 16 10 -6 12 -11 6 -11 -20 0 -15 -31 6 -37 22 -6 33 -34 20 -54 -10 -16
-12 -69 -3 -69 4 0 13 8 20 18 13 16 14 16 20 -5 3 -13 10 -23 15 -23 5 0 9
-5 9 -11 0 -6 -7 -8 -16 -5 -9 3 -12 2 -9 -5 4 -5 11 -9 17 -7 11 4 36 66 43
108 5 29 26 89 38 108 10 15 27 16 27 2z m-280 -64 c0 -2 -7 -9 -15 -16 -12
-10 -15 -10 -15 4 0 9 7 16 15 16 8 0 15 -2 15 -4z m-92 -72 c-9 -9 -21 -13
-27 -9 -16 10 -3 25 22 25 20 0 20 -1 5 -16z m517 -28 c-5 -25 -13 -36 -24
-36 -28 0 -33 12 -8 24 12 6 23 22 25 35 2 12 6 21 8 18 3 -3 2 -21 -1 -41z
m-168 -48 c-3 -8 -6 -5 -6 6 -1 11 2 17 5 13 3 -3 4 -12 1 -19z m133 -8 c0 -6
-7 -13 -15 -16 -8 -4 -15 -12 -15 -18 0 -7 -11 -18 -25 -24 -21 -10 -25 -9
-25 3 0 8 6 15 13 15 8 0 20 11 27 25 13 25 40 35 40 15z m-745 -100 c3 -5 -1
-10 -9 -10 -9 0 -16 5 -16 10 0 6 4 10 9 10 6 0 13 -4 16 -10z m655 -30 c0 -5
-4 -10 -9 -10 -6 0 -13 5 -16 10 -3 6 1 10 9 10 9 0 16 -4 16 -10z m-712 -7
c-10 -2 -26 -2 -35 0 -10 3 -2 5 17 5 19 0 27 -2 18 -5z m92 -345 c0 -7 -4
-19 -9 -26 -6 -10 -11 -10 -21 3 -12 14 -11 18 1 26 20 12 29 11 29 -3z m30
-19 c0 -6 -4 -7 -10 -4 -5 3 -10 11 -10 16 0 6 5 7 10 4 6 -3 10 -11 10 -16z
m-213 -15 c-3 -3 -12 -4 -19 -1 -8 3 -5 6 6 6 11 1 17 -2 13 -5z m904 -111
c-12 -20 -14 -14 -5 12 4 9 9 14 11 11 3 -2 0 -13 -6 -23z m-26 -43 c3 -5 1
-10 -4 -10 -6 0 -11 5 -11 10 0 6 2 10 4 10 3 0 8 -4 11 -10z m-25 -80 c0 -5
-5 -10 -11 -10 -5 0 -7 5 -4 10 3 6 8 10 11 10 2 0 4 -4 4 -10z m-45 -10 c-4
-6 5 -10 19 -10 14 0 26 -3 26 -8 0 -4 -18 -7 -40 -7 -27 0 -44 -6 -53 -19 -8
-11 -19 -16 -25 -12 -17 10 -15 26 3 26 8 0 15 6 15 14 0 9 7 12 23 9 18 -4
19 -3 7 6 -12 9 -11 11 8 11 13 0 20 -4 17 -10z m-1705 -26 c0 -3 -7 -12 -15
-20 -16 -17 -18 -14 -9 10 6 15 24 23 24 10z m1780 -269 c0 -8 -4 -15 -10 -15
-5 0 -10 7 -10 15 0 8 5 15 10 15 6 0 10 -7 10 -15z m120 -151 c0 -8 -5 -12
-10 -9 -6 4 -8 11 -5 16 9 14 15 11 15 -7z m-583 0 c-3 -3 -12 -4 -19 -1 -8 3
-5 6 6 6 11 1 17 -2 13 -5z m-97 -84 c0 -5 -4 -10 -10 -10 -5 0 -10 5 -10 10
0 6 5 10 10 10 6 0 10 -4 10 -10z m-390 -224 c0 -11 -19 -15 -25 -6 -3 5 1 10
9 10 9 0 16 -2 16 -4z m450 -1376 c19 -7 64 -26 100 -42 53 -24 72 -28 110
-23 90 12 137 -35 125 -125 -6 -41 -3 -55 18 -92 90 -155 88 -394 -5 -557 -40
-70 -157 -188 -223 -225 -178 -99 -402 -103 -570 -12 -54 29 -66 32 -122 28
-57 -4 -64 -2 -89 23 -25 25 -26 31 -21 88 5 54 2 70 -23 123 -56 115 -74 256
-49 376 17 84 81 206 141 268 84 88 170 138 300 175 62 18 252 14 308 -5z m81
-1447 c36 -36 48 -82 49 -183 0 -128 -55 -200 -155 -200 -95 0 -145 58 -153
174 -11 178 40 250 171 243 49 -3 63 -8 88 -34z m-386 13 c52 -22 68 -55 63
-128 -4 -49 -9 -65 -28 -80 l-24 -20 37 -72 c20 -40 37 -75 37 -79 0 -4 -18
-7 -40 -7 -39 0 -40 1 -77 70 -33 60 -42 70 -65 70 -27 0 -27 -1 -30 -72 l-3
-73 -32 -3 -33 -3 0 205 0 206 80 0 c47 0 95 -6 115 -14z m679 1 c11 -8 32
-72 61 -185 25 -96 45 -180 45 -187 0 -17 -33 -28 -58 -20 -13 4 -23 23 -31
61 l-13 55 -56 -3 -57 -3 -14 -52 c-14 -52 -14 -53 -52 -53 -22 0 -39 3 -39 6
0 12 81 315 91 342 6 14 15 32 21 39 14 17 79 17 102 0z m-988 -16 c55 -33 68
-126 27 -189 -19 -31 -71 -52 -128 -52 l-45 0 0 -70 0 -70 -35 0 -35 0 0 200
0 200 93 0 c73 0 98 -4 123 -19z m-1949 -2473 c-3 -7 -5 -2 -5 12 0 14 2 19 5
13 2 -7 2 -19 0 -25z m-32 -220 c-14 -89 -28 -164 -31 -167 -7 -7 3 79 27 221
10 64 20 122 20 130 1 7 3 5 6 -4 2 -10 -7 -91 -22 -180z m5102 -70 c-3 -8 -6
-5 -6 6 -1 11 2 17 5 13 3 -3 4 -12 1 -19z m42 -218 c17 -85 34 -164 37 -175
3 -14 -18 -55 -71 -134 -41 -63 -75 -121 -75 -129 0 -7 -6 -12 -12 -10 -10 4
-14 61 -16 232 l-2 228 50 64 c27 35 50 69 50 75 0 32 10 -9 39 -151z"/>
<path d="M3840 9910 c0 -5 7 -10 16 -10 8 0 12 5 9 10 -3 6 -10 10 -16 10 -5
0 -9 -4 -9 -10z"/>
<path d="M3853 9863 c-20 -7 -15 -23 7 -23 11 0 20 4 20 9 0 13 -12 19 -27 14z"/>
<path d="M5056 9234 c-9 -23 -7 -46 3 -40 12 8 21 45 11 51 -4 3 -11 -2 -14
-11z"/>
<path d="M5127 9226 c-6 -14 0 -26 14 -26 8 0 6 26 -3 35 -3 3 -8 -1 -11 -9z"/>
<path d="M4950 9214 c0 -2 9 -8 20 -14 11 -6 20 -7 20 -2 0 6 -9 12 -20 15
-11 3 -20 3 -20 1z"/>
<path d="M4772 9182 c-10 -7 -10 -12 3 -22 14 -11 18 -11 25 -1 5 9 21 12 44
9 20 -2 36 0 36 4 0 4 -12 8 -27 8 -16 0 -37 3 -48 5 -11 3 -26 1 -33 -3z"/>
<path d="M5456 9024 c19 -15 18 -15 -3 -11 -13 3 -26 1 -29 -4 -6 -10 20 -12
55 -2 l23 6 -23 13 c-33 18 -47 17 -23 -2z"/>
<path d="M5353 8925 c-8 -9 -9 -16 -3 -20 6 -3 13 1 16 10 9 21 2 26 -13 10z"/>
<path d="M5263 8870 c-23 -9 -32 -30 -13 -30 6 0 10 5 10 10 0 6 7 10 15 10 8
0 15 5 15 10 0 6 -1 10 -2 9 -2 0 -13 -4 -25 -9z"/>
<path d="M5100 8863 c-14 -3 -30 -9 -36 -14 -6 -5 -20 -7 -30 -3 -14 4 -16 3
-5 -4 7 -5 11 -15 7 -21 -5 -7 -1 -9 8 -5 9 3 16 1 16 -5 0 -16 26 -14 63 6
26 14 28 18 14 21 -18 4 -18 4 0 18 19 14 12 16 -37 7z"/>
<path d="M4878 8843 c7 -3 16 -2 19 1 4 3 -2 6 -13 5 -11 0 -14 -3 -6 -6z"/>
<path d="M5075 8770 c-19 -8 -19 -9 2 -9 12 -1 25 4 28 9 7 12 -2 12 -30 0z"/>
<path d="M4840 8750 c0 -5 5 -10 11 -10 5 0 7 5 4 10 -3 6 -8 10 -11 10 -2 0
-4 -4 -4 -10z"/>
<path d="M4737 8685 c-4 -8 -13 -15 -21 -15 -8 0 -18 -4 -21 -10 -3 -6 5 -10
18 -10 17 0 26 7 30 22 7 26 2 36 -6 13z"/>
<path d="M4925 6099 c-76 -18 -200 -88 -255 -144 -30 -30 -51 -58 -46 -62 20
-21 95 -1 201 52 119 60 185 76 285 68 42 -4 70 1 118 19 l64 25 -44 16 c-97
37 -231 47 -323 26z"/>
<path d="M5355 6005 c-167 -42 -344 -122 -444 -198 -104 -80 -199 -235 -270
-445 -42 -121 -51 -189 -26 -198 39 -15 249 45 395 113 114 54 214 127 265
196 90 119 166 281 207 440 18 71 19 88 9 101 -17 20 -26 19 -136 -9z m-227
-221 c43 -18 88 -58 108 -96 22 -43 18 -143 -8 -189 -25 -46 -82 -87 -133 -99
-93 -21 -204 32 -234 113 -18 46 -13 133 9 177 46 90 164 134 258 94z"/>
<path d="M5004 5729 c-18 -5 -46 -25 -63 -44 -25 -29 -31 -44 -31 -83 0 -86
56 -142 140 -142 82 0 143 58 143 137 0 93 -96 160 -189 132z"/>
<path d="M4946 5938 c-16 -6 -72 -33 -124 -60 -92 -48 -97 -49 -171 -47 l-76
2 -23 -57 c-13 -32 -21 -61 -18 -64 15 -15 103 -18 150 -6 42 11 66 28 131 91
45 43 110 95 145 116 49 28 58 37 40 36 -14 0 -38 -5 -54 -11z"/>
<path d="M5502 5772 c-17 -45 -24 -89 -26 -160 -4 -110 -19 -158 -84 -266 -38
-64 -59 -131 -50 -170 8 -39 136 91 186 190 41 81 55 151 50 258 -4 80 -10
113 -29 156 l-25 54 -22 -62z"/>
<path d="M4520 5582 l0 -69 31 -7 c56 -11 78 2 109 65 17 32 30 61 30 63 0 3
-28 5 -62 4 -35 -1 -73 2 -85 6 -22 7 -23 5 -23 -62z"/>
<path d="M5362 5490 c-30 -45 -84 -108 -127 -146 -66 -60 -75 -72 -86 -119 -7
-31 -9 -72 -5 -100 7 -45 9 -46 34 -40 15 3 45 13 67 22 l40 16 0 71 c0 78 11
111 66 203 33 53 74 161 66 169 -2 2 -26 -32 -55 -76z"/>
<path d="M4555 5404 c8 -20 15 -39 16 -43 1 -7 27 59 28 72 1 4 -13 7 -29 7
l-30 0 15 -36z"/>
<path d="M5005 5207 c-58 -31 -60 -33 -63 -76 -4 -54 5 -61 83 -61 l60 0 0 85
c0 50 -4 85 -10 84 -5 0 -37 -15 -70 -32z"/>
<path d="M4843 5147 c-41 -12 -42 -22 -1 -36 37 -13 41 -11 36 21 -3 22 -6 23
-35 15z"/>
<path d="M5149 4651 c-22 -18 -24 -26 -24 -120 0 -116 10 -135 71 -135 27 0
42 7 56 24 17 21 19 37 16 118 -3 84 -5 96 -27 113 -30 24 -62 24 -92 0z"/>
<path d="M4797 4653 c-4 -3 -7 -30 -7 -60 l0 -53 43 0 c30 0 49 6 60 18 22 24
21 65 -1 85 -18 17 -82 23 -95 10z"/>
<path d="M5537 4640 c-12 -31 -27 -96 -27 -117 0 -20 5 -23 35 -23 l36 0 -7
38 c-13 67 -31 118 -37 102z"/>
<path d="M4467 4643 c-4 -3 -7 -31 -7 -61 l0 -55 47 6 c72 8 100 55 61 105
-11 12 -90 17 -101 5z"/>
<path d="M4192 12449 c-14 -22 -7 -25 14 -5 8 8 11 17 6 20 -4 2 -13 -4 -20
-15z"/>
<path d="M5640 12436 c0 -2 8 -10 18 -17 15 -13 16 -12 3 4 -13 16 -21 21 -21
13z"/>
<path d="M5645 12393 c11 -3 25 -12 32 -20 10 -13 12 -12 10 6 -1 17 -7 21
-32 20 -20 -1 -24 -3 -10 -6z"/>
<path d="M4960 11519 c0 -5 5 -7 10 -4 6 3 10 8 10 11 0 2 -4 4 -10 4 -5 0
-10 -5 -10 -11z"/>
<path d="M5050 11494 c0 -8 5 -12 10 -9 6 4 8 11 5 16 -9 14 -15 11 -15 -7z"/>
<path d="M4880 11460 c0 -5 5 -10 10 -10 6 0 10 5 10 10 0 6 -4 10 -10 10 -5
0 -10 -4 -10 -10z"/>
<path d="M4668 11323 c7 -3 16 -2 19 1 4 3 -2 6 -13 5 -11 0 -14 -3 -6 -6z"/>
<path d="M4560 11280 c0 -5 9 -10 21 -10 11 0 17 5 14 10 -3 6 -13 10 -21 10
-8 0 -14 -4 -14 -10z"/>
<path d="M4506 11224 c-9 -24 -7 -28 9 -14 17 14 20 30 6 30 -5 0 -12 -7 -15
-16z"/>
<path d="M5475 11230 c3 -5 8 -10 11 -10 2 0 4 5 4 10 0 6 -5 10 -11 10 -5 0
-7 -4 -4 -10z"/>
<path d="M5506 11078 c3 -5 10 -6 15 -3 13 9 11 12 -6 12 -8 0 -12 -4 -9 -9z"/>
<path d="M5460 10790 c0 -5 -14 -7 -31 -5 -18 3 -37 1 -43 -3 -6 -4 -30 -7
-53 -7 -23 0 -37 3 -30 7 6 4 -18 5 -53 3 -36 -2 -66 -9 -68 -15 -2 -5 -8 -8
-12 -5 -5 3 -14 -4 -20 -15 -12 -23 -35 -28 -26 -5 3 8 1 15 -4 15 -5 0 -10
-10 -12 -22 -2 -16 -11 -24 -28 -26 -13 -2 -35 -15 -48 -29 -17 -18 -26 -22
-35 -14 -10 7 -17 5 -27 -9 -7 -10 -18 -16 -22 -13 -5 3 -1 14 9 25 18 20 18
21 -4 7 -30 -18 -29 -33 6 -58 15 -11 31 -33 34 -48 3 -16 19 -46 36 -67 24
-31 30 -46 26 -70 -16 -98 -4 -152 34 -159 14 -3 32 0 39 6 11 8 18 6 30 -11
18 -22 90 -57 100 -48 3 3 0 6 -7 6 -8 0 -31 19 -52 41 -60 64 -52 84 31 73
41 -5 50 -10 50 -26 0 -14 -5 -18 -17 -14 -10 2 -28 7 -40 11 -17 5 -21 3 -18
-7 8 -19 188 -86 280 -103 44 -8 81 -15 83 -15 2 0 -3 6 -10 13 -7 8 -31 17
-53 21 -61 10 -175 47 -175 57 0 5 6 6 14 3 7 -3 22 3 31 13 19 19 75 27 75
11 0 -5 21 -8 48 -7 26 1 58 1 72 0 23 -2 23 -3 5 -10 -16 -7 -13 -9 20 -15
43 -6 85 -3 103 8 7 4 12 4 12 -1 0 -4 30 -8 67 -8 38 0 85 -3 105 -7 36 -6
36 -6 17 13 -10 10 -24 19 -29 19 -6 0 -18 4 -28 9 -9 6 -30 13 -47 16 l-30 7
25 13 25 13 -28 7 c-15 4 -27 11 -27 15 0 5 -3 16 -6 24 -5 12 -2 15 10 10 9
-3 16 -1 16 5 0 6 -7 11 -16 11 -8 0 -12 5 -9 10 3 6 -3 10 -14 10 -11 0 -23
5 -26 10 -4 6 7 10 24 10 17 0 31 -5 31 -11 0 -7 9 -9 22 -6 12 3 29 2 39 -4
11 -6 20 -5 24 1 3 5 21 11 38 11 26 1 28 3 8 6 -19 4 -21 7 -10 14 11 7 10 9
-5 9 -12 0 -16 5 -13 14 4 9 -1 17 -12 21 -10 3 -24 18 -32 34 -49 99 -62 120
-70 115 -5 -3 -9 -1 -9 4 0 10 -70 84 -70 74 0 -4 -4 -2 -8 4 -18 27 -212 59
-212 34z m36 -269 c48 -22 132 -81 115 -81 -6 0 -22 7 -35 15 -12 8 -36 17
-52 19 -65 8 -110 20 -129 32 -14 10 -15 14 -5 14 13 0 13 2 0 10 -28 18 63
10 106 -9z m234 -11 c0 -5 -9 -10 -21 -10 -11 0 -17 5 -14 10 3 6 13 10 21 10
8 0 14 -4 14 -10z m-563 -108 c-31 -31 -42 -50 -40 -70 1 -19 0 -21 -4 -7 -3
11 -9 25 -14 31 -6 7 -6 27 0 50 8 33 9 35 10 12 1 -28 21 -41 21 -14 0 21 27
45 50 43 17 -1 14 -8 -23 -45z m280 42 c-3 -3 -12 -4 -19 -1 -8 3 -5 6 6 6 11
1 17 -2 13 -5z m-139 -54 c17 -27 7 -43 -18 -30 -10 5 -32 10 -49 10 -31 0
-41 13 -20 26 6 3 15 2 21 -4 8 -8 15 -6 25 4 19 19 26 18 41 -6z m242 -29 c0
-5 -13 -14 -30 -20 -31 -10 -39 -4 -18 17 14 14 48 16 48 3z m280 -61 c12 -8
12 -10 -5 -10 -11 0 -27 5 -35 10 -12 8 -12 10 5 10 11 0 27 -5 35 -10z m-515
-10 c3 -5 1 -10 -4 -10 -6 0 -11 5 -11 10 0 6 2 10 4 10 3 0 8 -4 11 -10z"/>
<path d="M5770 10777 c0 -18 21 -37 41 -37 10 0 20 -6 22 -12 3 -7 6 -3 6 10
1 15 -5 22 -18 22 -10 0 -21 7 -25 15 -7 18 -26 20 -26 2z"/>
<path d="M5392 10279 c-9 -4 15 -9 53 -13 39 -3 94 -10 123 -14 28 -5 52 -5
52 -1 0 22 -184 44 -228 28z"/>
<path d="M5329 10222 c11 -8 11 -10 0 -15 -9 -3 -7 -6 6 -6 11 0 27 4 35 9 13
8 13 10 -2 10 -9 0 -25 3 -35 6 -13 4 -15 3 -4 -4z"/>
<path d="M5398 10203 c7 -3 16 -2 19 1 4 3 -2 6 -13 5 -11 0 -14 -3 -6 -6z"/>
<path d="M5750 10190 c20 -13 43 -13 35 0 -3 6 -16 10 -28 10 -18 0 -19 -2 -7
-10z"/>
<path d="M5425 10160 c-3 -5 -1 -10 4 -10 6 0 11 5 11 10 0 6 -2 10 -4 10 -3
0 -8 -4 -11 -10z"/>
<path d="M5508 10162 c-39 -8 -15 -19 38 -17 71 3 95 23 27 22 -26 0 -56 -2
-65 -5z"/>
<path d="M5095 9970 c3 -5 14 -10 23 -10 15 0 15 2 2 10 -20 13 -33 13 -25 0z"/>
<path d="M5740 9751 c0 -6 5 -13 10 -16 6 -3 10 1 10 9 0 9 -4 16 -10 16 -5 0
-10 -4 -10 -9z"/>
<path d="M5350 9650 c0 -5 5 -10 10 -10 6 0 10 5 10 10 0 6 -4 10 -10 10 -5 0
-10 -4 -10 -10z"/>
<path d="M5937 9571 c-4 -17 -3 -21 5 -13 5 5 8 16 6 23 -3 8 -7 3 -11 -10z"/>
<path d="M3596 9524 c-21 -21 -22 -94 -1 -94 26 0 49 90 26 105 -5 3 -17 -2
-25 -11z"/>
<path d="M5822 9505 c0 -16 2 -22 5 -12 2 9 2 23 0 30 -3 6 -5 -1 -5 -18z"/>
<path d="M6002 9478 c-7 -7 -12 -23 -12 -36 0 -37 40 -140 57 -146 24 -10 36
4 19 23 -39 43 -58 135 -34 159 9 9 9 12 -3 12 -8 0 -20 -5 -27 -12z"/>
<path d="M6034 9459 c-4 -8 -3 -9 4 -5 7 4 12 1 12 -8 0 -8 -5 -16 -11 -18
-16 -5 16 -78 34 -78 10 0 16 14 19 41 3 35 0 43 -23 60 -20 14 -30 16 -35 8z"/>
<path d="M5947 9294 c-20 -21 16 -48 60 -45 19 1 8 30 -13 34 -13 2 -24 -1
-25 -7 0 -6 -4 -3 -8 7 -3 10 -10 15 -14 11z"/>
<path d="M5800 8334 c0 -8 5 -12 10 -9 6 4 8 11 5 16 -9 14 -15 11 -15 -7z"/>
<path d="M5656 8036 c10 -8 21 -12 24 -10 5 6 -21 24 -34 24 -6 0 -1 -6 10
-14z"/>
<path d="M5550 7880 c-8 -5 -10 -10 -5 -10 6 0 17 5 25 10 8 5 11 10 5 10 -5
0 -17 -5 -25 -10z"/>
<path d="M5634 7875 c-4 -8 -12 -15 -20 -15 -8 0 -14 -7 -14 -15 0 -8 3 -15 6
-15 7 0 54 48 54 56 0 11 -21 2 -26 -11z"/>
<path d="M5675 7870 c4 -6 1 -18 -6 -26 -9 -11 -9 -18 -1 -26 9 -9 12 -8 12 3
0 7 3 24 6 37 4 13 2 22 -5 22 -7 0 -9 -5 -6 -10z"/>
<path d="M5492 7827 c-24 -18 -29 -26 -20 -35 16 -16 28 -15 28 1 0 7 9 19 20
27 20 15 26 30 12 30 -4 0 -22 -10 -40 -23z"/>
<path d="M5568 7817 c-9 -7 -18 -24 -20 -37 -2 -21 -8 -24 -30 -22 -16 1 -28
-2 -28 -7 0 -6 7 -8 15 -5 9 4 15 0 15 -9 0 -8 6 -17 12 -19 16 -6 -13 -53
-43 -68 -33 -18 -32 -5 3 28 17 18 28 35 24 39 -4 4 -23 -10 -41 -32 -19 -21
-31 -42 -26 -45 5 -3 11 -23 13 -45 3 -22 8 -47 12 -56 9 -20 -19 -50 -38 -43
-8 3 -17 1 -21 -5 -3 -6 0 -11 9 -11 8 0 17 -6 19 -12 4 -10 6 -10 6 0 1 6 9
12 20 12 13 0 21 10 25 34 4 18 4 40 0 49 -8 21 26 77 43 70 8 -3 13 3 13 19
0 13 7 34 16 46 14 20 14 22 -2 22 -14 0 -15 3 -6 12 10 10 17 10 32 1 16 -11
20 -9 25 8 8 25 -3 39 -15 19 -7 -11 -10 -8 -10 13 0 21 5 27 23 27 21 1 22 1
3 15 -24 18 -26 18 -48 2z"/>
<path d="M5406 7791 c-4 -7 -5 -15 -2 -18 9 -9 19 4 14 18 -4 11 -6 11 -12 0z"/>
<path d="M5840 7754 c0 -14 4 -23 10 -19 6 3 10 15 10 26 0 10 -4 19 -10 19
-5 0 -10 -12 -10 -26z"/>
<path d="M5436 7753 c-6 -14 -5 -15 5 -6 7 7 10 15 7 18 -3 3 -9 -2 -12 -12z"/>
<path d="M5435 7549 c-11 -16 -1 -19 13 -3 7 8 8 14 3 14 -5 0 -13 -5 -16 -11z"/>
<path d="M4950 7480 c-18 -12 -2 -12 25 0 13 6 15 9 5 9 -8 0 -22 -4 -30 -9z"/>
<path d="M4910 7459 c0 -5 5 -7 10 -4 6 3 10 8 10 11 0 2 -4 4 -10 4 -5 0 -10
-5 -10 -11z"/>
</g>
</svg>
