<svg width="420" height="175" viewBox="0 0 338 125" fill="none" xmlns="http://www.w3.org/2000/svg">
<line x1="40" y1="124.75" x2="338" y2="124.75" stroke="white" stroke-opacity="0.5" stroke-width="0.5"/>
<path d="M18.4877 115.803C18.7007 115.672 18.8588 115.489 18.9396 115.279C19.0205 115.07 19.0201 114.845 18.9386 114.636C18.857 114.427 18.6984 114.244 18.485 114.113C18.2715 113.982 18.0139 113.91 17.7483 113.906L12.5895 113.745C12.5642 113.744 12.5398 113.736 12.5195 113.724C12.4992 113.711 12.4837 113.694 12.4749 113.674L10.6922 109.691C10.6027 109.489 10.44 109.314 10.2262 109.19C10.0125 109.066 9.75796 109 9.49714 109C9.23631 109 8.98179 109.066 8.76803 109.19C8.55426 109.314 8.39159 109.489 8.30202 109.691L6.52511 113.688C6.51633 113.708 6.50084 113.725 6.4805 113.738C6.46016 113.751 6.43584 113.758 6.41048 113.759L1.25171 113.921C0.986099 113.924 0.728501 113.997 0.51504 114.127C0.301579 114.258 0.142959 114.441 0.061422 114.65C-0.0201152 114.859 -0.020481 115.084 0.0603758 115.294C0.141233 115.503 0.299257 115.686 0.512292 115.817L4.55905 118.449C4.57931 118.462 4.59444 118.48 4.60259 118.5C4.61074 118.52 4.61155 118.542 4.60491 118.563L3.21204 122.645C3.13987 122.853 3.14686 123.074 3.23207 123.279C3.31728 123.483 3.47658 123.661 3.68828 123.788C3.89999 123.915 4.15383 123.985 4.41527 123.988C4.67671 123.992 4.93306 123.928 5.14944 123.807L9.42549 121.436C9.44655 121.424 9.47154 121.418 9.49714 121.418C9.52273 121.418 9.54772 121.424 9.56878 121.436L13.8448 123.807C14.0583 123.933 14.3137 124 14.5756 124C14.8376 124 15.093 123.933 15.3065 123.807C15.5182 123.681 15.6777 123.504 15.7629 123.3C15.8481 123.097 15.8548 122.876 15.7822 122.669L14.3779 118.572C14.3705 118.552 14.3709 118.53 14.3791 118.509C14.3873 118.489 14.4029 118.471 14.4238 118.458L18.4877 115.803Z" fill="#FF176C"/>
<rect x="313.2" y="0.2" width="24.6" height="124.6" fill="white" fill-opacity="0.5" stroke="#1F1D36" stroke-width="0.4"/>
<rect x="287.2" y="24.2" width="25.6" height="100.6" fill="white" fill-opacity="0.5" stroke="#1F1D36" stroke-width="0.4"/>
<rect x="261.2" y="42.2" width="25.6" height="82.6" fill="white" fill-opacity="0.5" stroke="#1F1D36" stroke-width="0.4"/>
<rect x="236.2" y="59.2" width="24.6" height="65.6" fill="white" fill-opacity="0.5" stroke="#1F1D36" stroke-width="0.4"/>
<rect x="210.2" y="92.2" width="25.6" height="32.6" fill="white" fill-opacity="0.5" stroke="#1F1D36" stroke-width="0.4"/>
<rect x="184.2" y="105.2" width="25.6" height="19.6" fill="white" fill-opacity="0.5" stroke="#1F1D36" stroke-width="0.4"/>
</svg>
