<svg width="126" height="19" viewBox="0 0 126 19" fill="none" xmlns="http://www.w3.org/2000/svg">
<path d="M22.3799 8.61727C22.6377 8.45098 22.829 8.21899 22.9269 7.95385C23.0248 7.6887 23.0243 7.40368 22.9256 7.13877C22.8269 6.87385 22.6349 6.64231 22.3765 6.47662C22.1181 6.31093 21.8063 6.21939 21.4848 6.21485L15.24 6.01064C15.2092 6.00881 15.1798 5.99933 15.1552 5.98334C15.1306 5.96736 15.1118 5.94555 15.1012 5.92055L12.9432 0.875473C12.8348 0.618798 12.6379 0.397161 12.3791 0.240571C12.1204 0.0839804 11.8123 0 11.4965 0C11.1808 0 10.8727 0.0839804 10.6139 0.240571C10.3552 0.397161 10.1582 0.618798 10.0498 0.875473L7.89882 5.93857C7.88819 5.96357 7.86943 5.98538 7.84481 6.00136C7.82019 6.01735 7.79075 6.02683 7.76005 6.02866L1.51523 6.23287C1.1937 6.23741 0.881869 6.32895 0.623469 6.49464C0.365069 6.66033 0.173056 6.89187 0.0743529 7.15678C-0.02435 7.4217 -0.0247928 7.70672 0.0730865 7.97186C0.170966 8.23701 0.362259 8.46899 0.620143 8.63529L5.51885 11.9686C5.54337 11.9853 5.5617 12.0079 5.57156 12.0335C5.58143 12.0591 5.5824 12.0867 5.57436 12.1128L3.88826 17.284C3.80089 17.5473 3.80935 17.8276 3.91251 18.0866C4.01566 18.3456 4.20849 18.5708 4.46476 18.7316C4.72104 18.8924 5.02832 18.981 5.3448 18.9852C5.66128 18.9895 5.9716 18.9093 6.23354 18.7555L11.4098 15.7525C11.4353 15.7372 11.4655 15.7291 11.4965 15.7291C11.5275 15.7291 11.5578 15.7372 11.5833 15.7525L16.7595 18.7555C17.0179 18.9145 17.3271 19 17.6442 19C17.9613 19 18.2705 18.9145 18.5289 18.7555C18.7852 18.5962 18.9782 18.3721 19.0814 18.1139C19.1845 17.8558 19.1927 17.5763 19.1048 17.314L17.4048 12.1248C17.3958 12.0987 17.3963 12.0709 17.4062 12.0451C17.4162 12.0193 17.4351 11.9968 17.4603 11.9807L22.3799 8.61727Z" fill="#FF176C"/>
<path d="M48.3529 8.61727C48.622 8.45098 48.8216 8.21899 48.9237 7.95385C49.0259 7.6887 49.0254 7.40368 48.9224 7.13877C48.8194 6.87385 48.6191 6.64231 48.3494 6.47662C48.0798 6.31093 47.7544 6.21939 47.4189 6.21485L40.9026 6.01064C40.8705 6.00881 40.8398 5.99933 40.8141 5.98334C40.7884 5.96736 40.7688 5.94555 40.7578 5.92055L38.506 0.875473C38.3929 0.618798 38.1874 0.397161 37.9174 0.240571C37.6473 0.0839804 37.3258 0 36.9964 0C36.6669 0 36.3454 0.0839804 36.0754 0.240571C35.8054 0.397161 35.5999 0.618798 35.4868 0.875473L33.2422 5.93857C33.2312 5.96357 33.2116 5.98538 33.1859 6.00136C33.1602 6.01735 33.1295 6.02683 33.0974 6.02866L26.5811 6.23287C26.2456 6.23741 25.9202 6.32895 25.6506 6.49464C25.3809 6.66033 25.1806 6.89187 25.0776 7.15678C24.9746 7.4217 24.9741 7.70672 25.0763 7.97186C25.1784 8.23701 25.378 8.46899 25.6471 8.63529L30.7588 11.9686C30.7844 11.9853 30.8035 12.0079 30.8138 12.0335C30.8241 12.0591 30.8251 12.0867 30.8167 12.1128L29.0573 17.284C28.9661 17.5473 28.975 17.8276 29.0826 18.0866C29.1903 18.3456 29.3915 18.5708 29.6589 18.7316C29.9263 18.8924 30.2469 18.981 30.5772 18.9852C30.9074 18.9895 31.2312 18.9093 31.5046 18.7555L36.9059 15.7525C36.9325 15.7372 36.964 15.7291 36.9964 15.7291C37.0287 15.7291 37.0603 15.7372 37.0869 15.7525L42.4882 18.7555C42.7578 18.9145 43.0805 19 43.4113 19C43.7422 19 44.0649 18.9145 44.3345 18.7555C44.602 18.5962 44.8034 18.3721 44.911 18.1139C45.0186 17.8558 45.0272 17.5763 44.9354 17.314L43.1616 12.1248C43.1522 12.0987 43.1527 12.0709 43.163 12.0451C43.1734 12.0193 43.1931 11.9968 43.2195 11.9807L48.3529 8.61727Z" fill="#FF176C"/>
<path d="M74.3529 8.61727C74.622 8.45098 74.8216 8.21899 74.9237 7.95385C75.0259 7.6887 75.0254 7.40368 74.9224 7.13877C74.8194 6.87385 74.6191 6.64231 74.3494 6.47662C74.0798 6.31093 73.7544 6.21939 73.4189 6.21485L66.9026 6.01064C66.8705 6.00881 66.8398 5.99933 66.8141 5.98334C66.7884 5.96736 66.7688 5.94555 66.7578 5.92055L64.506 0.875473C64.3929 0.618798 64.1874 0.397161 63.9174 0.240571C63.6473 0.0839804 63.3258 0 62.9964 0C62.6669 0 62.3454 0.0839804 62.0754 0.240571C61.8054 0.397161 61.5999 0.618798 61.4868 0.875473L59.2422 5.93857C59.2312 5.96357 59.2116 5.98538 59.1859 6.00136C59.1602 6.01735 59.1295 6.02683 59.0974 6.02866L52.5811 6.23287C52.2456 6.23741 51.9202 6.32895 51.6506 6.49464C51.3809 6.66033 51.1806 6.89187 51.0776 7.15678C50.9746 7.4217 50.9741 7.70672 51.0763 7.97186C51.1784 8.23701 51.378 8.46899 51.6471 8.63529L56.7588 11.9686C56.7844 11.9853 56.8035 12.0079 56.8138 12.0335C56.8241 12.0591 56.8251 12.0867 56.8167 12.1128L55.0573 17.284C54.9661 17.5473 54.975 17.8276 55.0826 18.0866C55.1903 18.3456 55.3915 18.5708 55.6589 18.7316C55.9263 18.8924 56.2469 18.981 56.5772 18.9852C56.9074 18.9895 57.2312 18.9093 57.5046 18.7555L62.9059 15.7525C62.9325 15.7372 62.964 15.7291 62.9964 15.7291C63.0287 15.7291 63.0603 15.7372 63.0869 15.7525L68.4882 18.7555C68.7578 18.9145 69.0805 19 69.4113 19C69.7422 19 70.0649 18.9145 70.3345 18.7555C70.602 18.5962 70.8034 18.3721 70.911 18.1139C71.0186 17.8558 71.0272 17.5763 70.9354 17.314L69.1616 12.1248C69.1522 12.0987 69.1527 12.0709 69.163 12.0451C69.1734 12.0193 69.1931 11.9968 69.2195 11.9807L74.3529 8.61727Z" fill="#FF176C"/>
<path d="M99.3799 8.61727C99.6377 8.45098 99.829 8.21899 99.9269 7.95385C100.025 7.6887 100.024 7.40368 99.9256 7.13877C99.8269 6.87385 99.6349 6.64231 99.3765 6.47662C99.1181 6.31093 98.8063 6.21939 98.4848 6.21485L92.24 6.01064C92.2092 6.00881 92.1798 5.99933 92.1552 5.98334C92.1306 5.96736 92.1118 5.94555 92.1012 5.92055L89.9432 0.875473C89.8348 0.618798 89.6379 0.397161 89.3791 0.240571C89.1204 0.0839804 88.8123 0 88.4965 0C88.1808 0 87.8727 0.0839804 87.6139 0.240571C87.3552 0.397161 87.1582 0.618798 87.0498 0.875473L84.8988 5.93857C84.8882 5.96357 84.8694 5.98538 84.8448 6.00136C84.8202 6.01735 84.7908 6.02683 84.76 6.02866L78.5152 6.23287C78.1937 6.23741 77.8819 6.32895 77.6235 6.49464C77.3651 6.66033 77.1731 6.89187 77.0744 7.15678C76.9757 7.4217 76.9752 7.70672 77.0731 7.97186C77.171 8.23701 77.3623 8.46899 77.6201 8.63529L82.5189 11.9686C82.5434 11.9853 82.5617 12.0079 82.5716 12.0335C82.5814 12.0591 82.5824 12.0867 82.5744 12.1128L80.8883 17.284C80.8009 17.5473 80.8094 17.8276 80.9125 18.0866C81.0157 18.3456 81.2085 18.5708 81.4648 18.7316C81.721 18.8924 82.0283 18.981 82.3448 18.9852C82.6613 18.9895 82.9716 18.9093 83.2335 18.7555L88.4098 15.7525C88.4353 15.7372 88.4655 15.7291 88.4965 15.7291C88.5275 15.7291 88.5578 15.7372 88.5833 15.7525L93.7595 18.7555C94.0179 18.9145 94.3271 19 94.6442 19C94.9613 19 95.2705 18.9145 95.5289 18.7555C95.7852 18.5962 95.9782 18.3721 96.0814 18.1139C96.1845 17.8558 96.1927 17.5763 96.1048 17.314L94.4048 12.1248C94.3958 12.0987 94.3963 12.0709 94.4062 12.0451C94.4162 12.0193 94.4351 11.9968 94.4603 11.9807L99.3799 8.61727Z" fill="#FF176C"/>
<path d="M125.38 8.61727C125.638 8.45098 125.829 8.21899 125.927 7.95385C126.025 7.6887 126.024 7.40368 125.926 7.13877C125.827 6.87385 125.635 6.64231 125.377 6.47662C125.118 6.31093 124.806 6.21939 124.485 6.21485L118.24 6.01064C118.209 6.00881 118.18 5.99933 118.155 5.98334C118.131 5.96736 118.112 5.94555 118.101 5.92055L115.943 0.875473C115.835 0.618798 115.638 0.397161 115.379 0.240571C115.12 0.0839804 114.812 0 114.497 0C114.181 0 113.873 0.0839804 113.614 0.240571C113.355 0.397161 113.158 0.618798 113.05 0.875473L110.899 5.93857C110.888 5.96357 110.869 5.98538 110.845 6.00136C110.82 6.01735 110.791 6.02683 110.76 6.02866L104.515 6.23287C104.194 6.23741 103.882 6.32895 103.623 6.49464C103.365 6.66033 103.173 6.89187 103.074 7.15678C102.976 7.4217 102.975 7.70672 103.073 7.97186C103.171 8.23701 103.362 8.46899 103.62 8.63529L108.519 11.9686C108.543 11.9853 108.562 12.0079 108.572 12.0335C108.581 12.0591 108.582 12.0867 108.574 12.1128L106.888 17.284C106.801 17.5473 106.809 17.8276 106.913 18.0866C107.016 18.3456 107.208 18.5708 107.465 18.7316C107.721 18.8924 108.028 18.981 108.345 18.9852C108.661 18.9895 108.972 18.9093 109.234 18.7555L114.41 15.7525C114.435 15.7372 114.466 15.7291 114.497 15.7291C114.528 15.7291 114.558 15.7372 114.583 15.7525L119.76 18.7555C120.018 18.9145 120.327 19 120.644 19C120.961 19 121.27 18.9145 121.529 18.7555C121.785 18.5962 121.978 18.3721 122.081 18.1139C122.185 17.8558 122.193 17.5763 122.105 17.314L120.405 12.1248C120.396 12.0987 120.396 12.0709 120.406 12.0451C120.416 12.0193 120.435 11.9968 120.46 11.9807L125.38 8.61727Z" fill="#FF176C"/>
</svg>
