<svg width="47" height="47" viewBox="0 0 47 47" fill="none" xmlns="http://www.w3.org/2000/svg">
<path fill-rule="evenodd" clip-rule="evenodd" d="M23.5868 46.437C36.2326 46.437 46.4841 36.1855 46.4841 23.5396C46.4841 10.8938 36.2326 0.642334 23.5868 0.642334C10.9409 0.642334 0.689453 10.8938 0.689453 23.5396C0.689453 36.1855 10.9409 46.437 23.5868 46.437Z" fill="#FEDC5A" fill-opacity="0.1"/>
<path d="M28.6967 29.6234H19.1396C17.8122 29.6234 17.2812 29.0571 17.2812 27.65V26.7297C17.2812 25.3227 17.8122 24.7563 19.1396 24.7563H28.6967C30.0241 24.7563 30.5551 25.3227 30.5551 26.7297V27.65C30.5551 29.0571 30.0241 29.6234 28.6967 29.6234Z" stroke="#FEDC5A" stroke-width="1.32738" stroke-linecap="round" stroke-linejoin="round"/>
<path d="M26.9266 22.1017H20.9091C19.5817 22.1017 19.0508 21.5353 19.0508 20.1283V19.208C19.0508 17.801 19.5817 17.2346 20.9091 17.2346H26.9266C28.254 17.2346 28.7849 17.801 28.7849 19.208V20.1283C28.7849 21.5353 28.254 22.1017 26.9266 22.1017Z" stroke="#FEDC5A" stroke-width="1.32738" stroke-linecap="round" stroke-linejoin="round"/>
<path d="M23.918 32.0569V29.9331" stroke="#FEDC5A" stroke-width="1.32738" stroke-linecap="round" stroke-linejoin="round"/>
<path d="M23.918 24.0926V22.3228" stroke="#FEDC5A" stroke-width="1.32738" stroke-linecap="round" stroke-linejoin="round"/>
<path d="M23.918 14.3586V16.7391" stroke="#292D32" stroke-width="1.32738" stroke-linecap="round" stroke-linejoin="round"/>
</svg>
