<svg width="46" height="47" viewBox="0 0 46 47" fill="none" xmlns="http://www.w3.org/2000/svg">
<path fill-rule="evenodd" clip-rule="evenodd" d="M23.0145 46.437C35.6603 46.437 45.9118 36.1855 45.9118 23.5396C45.9118 10.8938 35.6603 0.642334 23.0145 0.642334C10.3687 0.642334 0.117188 10.8938 0.117188 23.5396C0.117188 36.1855 10.3687 46.437 23.0145 46.437Z" fill="#F04037" fill-opacity="0.1"/>
<path d="M32.1955 25.8626V20.5531C32.1955 16.1285 30.4256 14.3586 26.001 14.3586H20.6915C16.2669 14.3586 14.4971 16.1285 14.4971 20.5531V25.8626C14.4971 30.2872 16.2669 32.0571 20.6915 32.0571H26.001C30.4256 32.0571 32.1955 30.2872 32.1955 25.8626Z" stroke="#F04037" stroke-width="1.32738" stroke-linecap="round" stroke-linejoin="round"/>
<path d="M14.957 18.8804H31.7351" stroke="#F04037" stroke-width="1.32738" stroke-linecap="round" stroke-linejoin="round"/>
<path d="M20.2676 14.4561V18.7568" stroke="#F04037" stroke-width="1.32738" stroke-linecap="round" stroke-linejoin="round"/>
<path d="M26.4258 14.4561V18.3586" stroke="#F04037" stroke-width="1.32738" stroke-linecap="round" stroke-linejoin="round"/>
<path d="M21.3555 25.3758V24.3139C21.3555 22.9511 22.32 22.3936 23.497 23.075L24.4173 23.6059L25.3376 24.1369C26.5146 24.8183 26.5146 25.9333 25.3376 26.6147L24.4173 27.1456L23.497 27.6766C22.32 28.358 21.3555 27.8005 21.3555 26.4377V25.3758V25.3758Z" stroke="#F04037" stroke-width="1.32738" stroke-miterlimit="10" stroke-linecap="round" stroke-linejoin="round"/>
</svg>
