<svg width="47" height="47" viewBox="0 0 47 47" fill="none" xmlns="http://www.w3.org/2000/svg">
<path fill-rule="evenodd" clip-rule="evenodd" d="M23.5536 46.6518C36.1994 46.6518 46.4509 36.4003 46.4509 23.7545C46.4509 11.1087 36.1994 0.857178 23.5536 0.857178C10.9077 0.857178 0.65625 11.1087 0.65625 23.7545C0.65625 36.4003 10.9077 46.6518 23.5536 46.6518Z" fill="#FEDC5A" fill-opacity="0.1"/>
<path d="M29.2697 30.7293H17.9851C15.2406 30.7293 13.0078 28.3673 13.0078 25.464V18.2661C13.0078 15.3624 15.241 13 17.9859 13H29.2697C32.0146 13 34.2478 15.3624 34.2478 18.2661V25.4631C34.2478 28.3669 32.0146 30.7293 29.2697 30.7293ZM17.9859 14.7554C16.156 14.7554 14.6672 16.3303 14.6672 18.2661V25.464C14.6672 27.3993 16.1556 28.9739 17.9851 28.9739H29.2697C31.0996 28.9739 32.5884 27.399 32.5884 25.4631V18.2661C32.5884 16.3303 31.0996 14.7554 29.2697 14.7554H17.9859ZM28.44 33.3623C28.44 32.8775 28.0685 32.4846 27.6103 32.4846H19.6453C19.1871 32.4846 18.8156 32.8775 18.8156 33.3623C18.8156 33.847 19.1871 34.24 19.6453 34.24H27.6103C28.0686 34.24 28.44 33.847 28.44 33.3623ZM20.8069 24.3222C20.3487 24.3222 19.9772 23.9292 19.9772 23.4445V20.9869C19.9772 19.535 21.0938 18.3539 22.4663 18.3539H24.8309C25.2891 18.3539 25.6606 18.7468 25.6606 19.2316C25.6606 19.7163 25.2891 20.1093 24.8309 20.1093H22.4663C22.0088 20.1093 21.6366 20.503 21.6366 20.987V23.4445C21.6366 23.9292 21.2651 24.3222 20.8069 24.3222ZM26.994 25.8205C27.318 25.4777 27.318 24.9219 26.994 24.5792L24.256 21.6828C23.932 21.34 23.4066 21.34 23.0826 21.6828C22.7586 22.0256 22.7586 22.5813 23.0826 22.924L25.8206 25.8204C25.9826 25.9918 26.1949 26.0774 26.4072 26.0774C26.6196 26.0775 26.8319 25.9918 26.994 25.8205Z" fill="#FEDC5A" fill-opacity="0.41"/>
</svg>
