<svg width="47" height="47" viewBox="0 0 47 47" fill="none" xmlns="http://www.w3.org/2000/svg">
<path fill-rule="evenodd" clip-rule="evenodd" d="M23.3397 46.6518C35.9855 46.6518 46.237 36.4003 46.237 23.7545C46.237 11.1087 35.9855 0.857178 23.3397 0.857178C10.6939 0.857178 0.442383 11.1087 0.442383 23.7545C0.442383 36.4003 10.6939 46.6518 23.3397 46.6518Z" fill="#F04037" fill-opacity="0.1"/>
<path d="M24.5642 15.3877L29.7852 17.7062C31.2896 18.3699 31.2896 19.4672 29.7852 20.1309L24.5642 22.4494C23.9713 22.7148 22.9979 22.7148 22.405 22.4494L17.1839 20.1309C15.6796 19.4672 15.6796 18.3699 17.1839 17.7062L22.405 15.3877C22.9979 15.1222 23.9713 15.1222 24.5642 15.3877Z" stroke="#F04037" stroke-width="1.32738" stroke-linecap="round" stroke-linejoin="round"/>
<path d="M15.7061 22.5378C15.7061 23.2812 16.2636 24.1395 16.9449 24.4404L22.9536 27.1129C23.4137 27.3164 23.9358 27.3164 24.3871 27.1129L30.3957 24.4404C31.0771 24.1395 31.6346 23.2812 31.6346 22.5378" stroke="#F04037" stroke-width="1.32738" stroke-linecap="round" stroke-linejoin="round"/>
<path d="M15.7061 26.9624C15.7061 27.7854 16.1928 28.5287 16.9449 28.865L22.9536 31.5374C23.4137 31.741 23.9358 31.741 24.3871 31.5374L30.3957 28.865C31.1479 28.5287 31.6346 27.7854 31.6346 26.9624" stroke="#F04037" stroke-width="1.32738" stroke-linecap="round" stroke-linejoin="round"/>
</svg>
