<svg width="83" height="17" viewBox="0 0 83 17" fill="none" xmlns="http://www.w3.org/2000/svg">
<path d="M8.29411 0L10.1545 6.21885H16.1748L11.3043 10.0623L13.1647 16.2812L8.29411 12.4377L3.42354 16.2812L5.28393 10.0623L0.413373 6.21885H6.43372L8.29411 0Z" fill="#FF176C"/>
<path d="M58.0119 0L59.8723 6.21885H65.8926L61.0221 10.0623L62.8824 16.2812L58.0119 12.4377L53.1413 16.2812L55.0017 10.0623L50.1311 6.21885H56.1515L58.0119 0Z" fill="#FF176C"/>
<path d="M74.8312 0L76.6916 6.21885H82.712L77.8414 10.0623L79.7018 16.2812L74.8312 12.4377L69.9607 16.2812L71.821 10.0623L66.9505 6.21885H72.9708L74.8312 0Z" fill="#FF176C"/>
<path d="M41.4386 0L43.299 6.21885H49.3194L44.4488 10.0623L46.3092 16.2812L41.4386 12.4377L36.5681 16.2812L38.4285 10.0623L33.5579 6.21885H39.5782L41.4386 0Z" fill="#FF176C"/>
<path d="M24.8664 0L26.7268 6.21885H32.7471L27.8765 10.0623L29.7369 16.2812L24.8664 12.4377L19.9958 16.2812L21.8562 10.0623L16.9856 6.21885H23.006L24.8664 0Z" fill="#FF176C"/>
</svg>
