<svg width="47" height="47" viewBox="0 0 47 47" fill="none" xmlns="http://www.w3.org/2000/svg">
<path fill-rule="evenodd" clip-rule="evenodd" d="M23.8006 46.437C36.4465 46.437 46.698 36.1855 46.698 23.5396C46.698 10.8938 36.4465 0.642334 23.8006 0.642334C11.1548 0.642334 0.90332 10.8938 0.90332 23.5396C0.90332 36.1855 11.1548 46.437 23.8006 46.437Z" fill="#5454D4" fill-opacity="0.1"/>
<path d="M30.5812 24.2906C29.7406 23.45 28.6801 22.8826 27.5144 22.6496L25.1638 22.1797C24.8918 22.1252 24.6106 22.2105 24.4145 22.4066C24.2183 22.6028 24.1332 22.884 24.1875 23.156L24.6574 25.5066C24.8904 26.6724 25.4579 27.7328 26.2984 28.5734L30.078 32.353C30.65 32.9249 31.4105 33.24 32.2194 33.24C33.0283 33.24 33.7888 32.925 34.3607 32.353C34.9327 31.781 35.2477 31.0205 35.2477 30.2117C35.2477 29.4028 34.9328 28.6423 34.3607 28.0703L30.5812 24.2906ZM33.1874 31.1796C32.9289 31.4381 32.5851 31.5806 32.2194 31.5806C31.8538 31.5806 31.5099 31.4381 31.2514 31.1796L27.4718 27.4C26.8637 26.7919 26.4532 26.0247 26.2846 25.1814L26.0586 24.0508L27.1892 24.2768C28.0325 24.4454 28.7997 24.8558 29.4078 25.464L33.1874 29.2436C33.4459 29.5021 33.5884 29.846 33.5884 30.2116C33.5884 30.5773 33.446 30.921 33.1874 31.1796ZM21.3505 13.6594H18.8432C18.5007 12.6937 17.5785 12 16.4969 12C15.1244 12 14.0078 13.1166 14.0078 14.4891C14.0078 15.5707 14.7015 16.4929 15.6672 16.8354V19.3013C15.6672 19.7595 16.0386 20.131 16.4969 20.131C16.9551 20.131 17.3266 19.7595 17.3266 19.3013V16.8354C18.0326 16.585 18.5929 16.0248 18.8433 15.3188H21.3505C21.8088 15.3188 22.1803 14.9473 22.1803 14.4891C22.1803 14.0308 21.8088 13.6594 21.3505 13.6594ZM16.4969 15.3187C16.0394 15.3187 15.6672 14.9465 15.6672 14.489C15.6672 14.0315 16.0394 13.6593 16.4969 13.6593C16.9544 13.6593 17.3266 14.0315 17.3266 14.489C17.3266 14.9465 16.9544 15.3187 16.4969 15.3187ZM27.8636 15.3187H30.4124C30.6628 16.0247 31.223 16.585 31.929 16.8354V19.3012C31.929 19.7595 32.3005 20.1309 32.7587 20.1309C33.217 20.1309 33.5884 19.7595 33.5884 19.3012V16.8354C34.5541 16.4929 35.2478 15.5706 35.2478 14.489C35.2478 13.1166 34.1312 12 32.7587 12C31.6771 12 30.7549 12.6937 30.4123 13.6594H27.8635C27.4053 13.6594 27.0338 14.0308 27.0338 14.4891C27.0338 14.9473 27.4053 15.3187 27.8636 15.3187ZM32.7587 13.6594C33.2162 13.6594 33.5884 14.0315 33.5884 14.4891C33.5884 14.9466 33.2162 15.3188 32.7587 15.3188C32.3012 15.3188 31.929 14.9466 31.929 14.4891C31.929 14.0315 32.3012 13.6594 32.7587 13.6594ZM21.3505 29.9212H18.8432C18.5928 29.2152 18.0326 28.6549 17.3266 28.4045V25.8972C17.3266 25.439 16.9551 25.0675 16.4968 25.0675C16.0386 25.0675 15.6671 25.439 15.6671 25.8972V28.4045C14.7015 28.747 14.0078 29.6692 14.0078 30.7509C14.0078 32.1233 15.1244 33.2399 16.4969 33.2399C17.5785 33.2399 18.5007 32.5462 18.8433 31.5806H21.3505C21.8088 31.5806 22.1803 31.2091 22.1803 30.7509C22.1803 30.2926 21.8088 29.9212 21.3505 29.9212ZM16.4969 31.5806C16.0394 31.5806 15.6672 31.2084 15.6672 30.7509C15.6672 30.2933 16.0394 29.9211 16.4969 29.9211C16.9544 29.9211 17.3266 30.2933 17.3266 30.7509C17.3266 31.2084 16.9544 31.5806 16.4969 31.5806ZM25.6234 14.4891C25.6234 15.0618 25.1591 15.5262 24.5863 15.5262C24.0135 15.5262 23.5492 15.0618 23.5492 14.4891C23.5492 13.9163 24.0135 13.452 24.5863 13.452C25.1591 13.4519 25.6234 13.9163 25.6234 14.4891ZM24.5863 29.7138C24.0135 29.7138 23.5492 30.1781 23.5492 30.7509C23.5492 31.3236 24.0135 31.788 24.5863 31.788C25.1591 31.788 25.6234 31.3236 25.6234 30.7509C25.6234 30.1781 25.1591 29.7138 24.5863 29.7138ZM32.7587 21.6658C32.1859 21.6658 31.7216 22.1301 31.7216 22.7029C31.7216 23.2757 32.1859 23.74 32.7587 23.74C33.3315 23.74 33.7958 23.2757 33.7958 22.7029C33.7958 22.1301 33.3315 21.6658 32.7587 21.6658ZM16.4969 21.6658C15.9241 21.6658 15.4598 22.1301 15.4598 22.7029C15.4598 23.2757 15.9241 23.74 16.4969 23.74C17.0697 23.74 17.534 23.2757 17.534 22.7029C17.534 22.1301 17.0697 21.6658 16.4969 21.6658Z" fill="#5454D4"/>
</svg>
