<svg width="47" height="47" viewBox="0 0 47 47" fill="none" xmlns="http://www.w3.org/2000/svg">
<path fill-rule="evenodd" clip-rule="evenodd" d="M23.1249 46.6518C35.7707 46.6518 46.0222 36.4003 46.0222 23.7545C46.0222 11.1087 35.7707 0.857178 23.1249 0.857178C10.479 0.857178 0.227539 11.1087 0.227539 23.7545C0.227539 36.4003 10.479 46.6518 23.1249 46.6518Z" fill="#5454D4" fill-opacity="0.1"/>
<path d="M20.802 24.3076C20.218 24.5996 19.7313 25.0333 19.3685 25.5731C19.1649 25.8828 19.1649 26.2721 19.3685 26.5819C19.7313 27.1217 20.218 27.5553 20.802 27.8473" stroke="#5454D4" stroke-width="1.32738" stroke-linecap="round" stroke-linejoin="round"/>
<path d="M26.2979 24.3076C26.8819 24.5996 27.3686 25.0333 27.7314 25.5731C27.935 25.8828 27.935 26.2721 27.7314 26.5819C27.3686 27.1217 26.8819 27.5553 26.2979 27.8473" stroke="#5454D4" stroke-width="1.32738" stroke-linecap="round" stroke-linejoin="round"/>
<path d="M20.8019 32.272H26.1114C30.536 32.272 32.3058 30.5022 32.3058 26.0776V20.7681C32.3058 16.3434 30.536 14.5736 26.1114 14.5736H20.8019C16.3773 14.5736 14.6074 16.3434 14.6074 20.7681V26.0776C14.6074 30.5022 16.3773 32.272 20.8019 32.272Z" stroke="#5454D4" stroke-width="1.32738" stroke-linecap="round" stroke-linejoin="round"/>
<path d="M14.8115 19.8919L31.8197 19.8831" stroke="#5454D4" stroke-width="1.32738" stroke-linecap="round" stroke-linejoin="round"/>
</svg>
